<?xml version="1.0" encoding="utf-8"?>
<!-- Generator: Adobe Illustrator 16.0.4, SVG Export Plug-In . SVG Version: 6.00 Build 0)  -->
<!DOCTYPE svg PUBLIC "-//W3C//DTD SVG 1.1//EN" "http://www.w3.org/Graphics/SVG/1.1/DTD/svg11.dtd">
<svg version="1.1" id="Layer_1" xmlns="http://www.w3.org/2000/svg" xmlns:xlink="http://www.w3.org/1999/xlink" x="0px" y="0px"
	 width="80px" height="80px" viewBox="0 0 80 80" enable-background="new 0 0 80 80" xml:space="preserve">
<g>
	<circle fill="#D65B49" cx="40.189" cy="39.667" r="35.165"/>
	<g>
		<path fill="#E9E9E9" d="M56.978,42.584H24.85c-0.543,0-0.983,0.273-0.983,0.816c0,3.009,2.191,6.617,4.31,10.186
			c1.302,2.196,2.533,4.044,2.938,5.503c0.119,0.426,0.506,0.495,0.948,0.495h17.375c0.424,0,0.799-0.085,0.934-0.487
			c0.47-1.41,1.687-3.291,2.977-5.379c2.162-3.506,4.613-7.265,4.613-10.364C57.961,42.812,57.521,42.584,56.978,42.584z"/>
		<path fill="#FFB168" d="M61.444,35.063c0-0.003,0-0.005,0-0.008c-1-2.534-4.892-7.441-5.825-9.323
			c-0.886-2.291-3.177-3.917-5.78-3.917c-0.023,0-0.082,0.003-0.104,0.003c-0.052,0-0.115-0.013-0.171-0.003
			c-0.043,0.007-0.107,0.012-0.152,0.018c-0.181,0.011-0.363,0.028-0.541,0.055c-2.336,0.174-7.274-0.144-8.767-0.973
			c-0.062-0.042-0.128-0.173-0.193-0.214c-0.01-0.007-0.026-0.116-0.035-0.116h-0.001c-0.938,0-2.039-0.831-3.223-0.831
			c-1.848,0-3.502,0.872-4.625,2.167c-0.128,0.098,0.207,0.238,0.115,0.391c-1.311,2.159-4.698,5.624-7.698,6.183v0.023
			c-3,0.601-5.261,3.046-5.261,5.975c0,0.448-0.175,0.883-0.084,1.304l0,0c0.296,2.849,2.367,7.876,5.865,8.095
			c3.496,0.22,26.498,0.438,30.759,0c3.379,0,6.24-2.739,6.24-6.12C61.963,36.797,61.444,35.88,61.444,35.063z"/>
		<circle fill="#BA3325" cx="29.331" cy="37.224" r="2.404"/>
		<circle fill="#BA3325" cx="41.789" cy="35.912" r="2.404"/>
		<circle fill="#BA3325" cx="34.577" cy="28.699" r="1.749"/>
		<circle fill="#BA3325" cx="48.345" cy="29.355" r="2.841"/>
		<circle fill="#BA3325" cx="52.935" cy="37.879" r="1.901"/>
	</g>
</g>
</svg>
