<?xml version="1.0" encoding="utf-8"?>
<!-- Generator: Adobe Illustrator 16.0.4, SVG Export Plug-In . SVG Version: 6.00 Build 0)  -->
<!DOCTYPE svg PUBLIC "-//W3C//DTD SVG 1.1//EN" "http://www.w3.org/Graphics/SVG/1.1/DTD/svg11.dtd">
<svg version="1.1" id="Layer_1" xmlns="http://www.w3.org/2000/svg" xmlns:xlink="http://www.w3.org/1999/xlink" x="0px" y="0px"
	 width="221.126px" height="166.238px" viewBox="0 0 221.126 166.238" enable-background="new 0 0 221.126 166.238"
	 xml:space="preserve">
<path fill="#FFFFFF" d="M123,156h17v-3h-14v-11h14v-3h-14v-10h14v-2h-17V156z M167,149.317L147.902,127H147v29h3v-22.092
	L169.721,156H170v-29h-3V149.317z M111.848,127l-11.845,24.14L88.043,127h-0.478l-4.212,29h2.84l2.89-21.2L99.61,156h0.751
	l10.402-21.04L113.67,156h2.883l-4.233-29H111.848z M25,135h-2v6h-3v2h3v13h2v-13h3v-2h-3V135z M43.071,141.469
	c-0.88-0.577-1.888-0.866-3.023-0.866c-1.107,0-2.312,0.258-3.261,0.775c-0.949,0.516-1.786,1.296-2.786,2.338V135h-2v21h2v-5.386
	c0-2.01,0.269-3.388,0.454-4.133c0.298-1.154,1.003-2.122,1.938-2.904s2.038-1.173,3.22-1.173c1.033,0,1.891,0.253,2.529,0.761
	c0.638,0.507,0.742,1.263,0.984,2.269c0.14,0.586-0.125,1.755-0.125,3.504V156h2v-7.633c0-2.076,0.113-3.6-0.306-4.573
	S43.95,142.047,43.071,141.469z M64.127,143.678c-1.547-1.964-3.615-3.01-6.205-3.01c-2.516,0-4.523,0.927-6.023,2.845
	c-1.183,1.508-1.774,3.209-1.774,5.136c0,2.048,0.698,3.875,2.096,5.5c1.398,1.624,3.336,2.432,5.814,2.432
	c1.117,0,2.119-0.171,3.004-0.511c0.886-0.34,1.682-0.837,2.39-1.489c0.709-0.651,1.333-1.508,1.873-2.569l-1.647-0.866
	c-0.597,0.992-1.151,1.71-1.664,2.155s-1.134,0.802-1.866,1.071c-0.731,0.269-1.483,0.404-2.257,0.404
	c-1.604,0-2.95-0.437-4.04-1.564c-1.091-1.129-1.654-3.211-1.691-4.211h13.669C65.786,146,65.226,145.065,64.127,143.678z
	 M52.331,147c0.4-1,0.992-2.416,1.775-3.114c1.071-0.959,2.353-1.425,3.845-1.425c0.903,0,1.766,0.198,2.586,0.579
	c0.819,0.382,1.479,0.86,1.978,1.484c0.499,0.624,0.879,1.476,1.14,2.476H52.331z M54.712,57.387c-0.811,0-1.337,0.358-2.11,0.922v0
	c0,0.031-20.378,23.932-20.378,23.932c-0.432,0.479-0.657,1.112-0.657,1.808c0,1.494,1.23,2.66,2.725,2.66
	c0.679,0,1.308-0.71,1.782-0.71h0.006c0.259,0,5.92-6.974,5.92-6.974s0,26.758,0,28.755s0.584,3.704,2.58,3.704
	c2.19,0,3.42-1.804,3.42-3.851V71.685l8.522-9.616l0.057-0.03c0.511-0.492,0.873-1.181,0.873-1.946
	C57.452,58.598,56.206,57.387,54.712,57.387z M176.999,105.509c-0.193,0-15.999,0.051-15.999,0.051v-11.93
	c0,0,9.825,0.13,10.202,0.13c1.879,0,3.542-1.522,3.542-3.399s-1.735-3.399-3.613-3.399c-0.192,0-10.132,0.05-10.132,0.05V73.488
	c0,0,14.462,0.178,14.839,0.178c1.879,0,3.542-1.456,3.542-3.333S178.002,67,176.125,67h-17.75c-1.878,0-4.375,1.39-4.375,3.267
	v38.552c0,1.877,2.473,3.181,4.35,3.181h18.934c1.878,0,3.258-1.368,3.258-3.245C180.542,106.877,178.876,105.509,176.999,105.509z
	 M211.802,118H199V16.686c0-0.45,0.216-0.877-0.125-1.171s-0.975-0.424-1.42-0.358L189,16.389v-2.826
	c0-0.465,0.18-0.905-0.182-1.199c-0.361-0.294-0.699-0.409-1.154-0.314L180,13.671v-2.813c0-0.481-0.166-0.935-0.548-1.227
	c-0.382-0.293-0.85-0.391-1.313-0.265l-69.672,18.83l-0.319-0.066c-0.096-0.049-0.192-0.091-0.301-0.12L38.705,9.366
	c-0.464-0.125-1.338-0.027-1.72,0.266S36,10.377,36,10.858v2.756l-6.944-1.489c-0.021-0.004,0.147-0.008,0.126-0.012l-0.389-0.077
	c-0.445-0.072-0.903,0.056-1.248,0.35C27.2,12.681,27,13.111,27,13.563v2.82l-8.621-1.229c-0.443-0.062-1.201,0.07-1.539,0.363
	C16.502,15.812,16,16.237,16,16.686V118H9.324c-0.854,0-1.546,0.646-1.546,1.5S8.47,121,9.324,121h202.479
	c0.854,0,1.546-0.646,1.546-1.5S212.656,118,211.802,118z M178.761,17.04L186,15.463v1.351l-22.818,3.368L178.761,17.04z
	 M176,12.877v1.387l-21,4.287L176,12.877z M39,12.876l19.729,5.319L39,14.186V12.876z M30,15.434l23.972,4.874L30,16.813V15.434z
	 M196,118H19V18.465l8.946,1.214l79.967,11.622c0.138,0.041,0.375,0.068,0.524,0.068c0.027,0,0.103-0.003,0.13-0.005
	c0.03,0.001,0.084,0.003,0.114,0.003c0.008,0,0.027,0.002,0.035,0.002c0.111,0,0.224-0.016,0.33-0.038l79.261-11.652l7.692-1.2V118z
	 M160.603,56.147c0.773-1.932-0.097-3.285-2.363-4.438c-1.364-0.694-23.522-10.448-24.847-11.067
	c-1.964-0.917-4.33-1.062-5.297,0.821c-0.97,1.891-0.707,3.768,2.078,5.012L139,50.818c0,0,0,54.693,0,56.963
	c0,2.271,1.248,3.896,3.251,3.896c2,0,3.749-1.142,3.749-3.799c0-2.028,0-54.354,0-54.354s8.12,3.386,9.716,4.073
	C157.312,58.283,160,57.655,160.603,56.147z M115.103,67.981c-4.347-5.99-7.052-10.82-8.018-13.138
	c-2.727-6.543,1.604-11.623,6.441-11.623c1.584,0,3.068,0.417,4.351,1.155c0.259,0.147,1.188,0.722,1.883,0.722
	c1.561,0,2.828-1.267,2.828-2.832c0-0.931-0.452-1.758-1.147-2.272c-0.108-0.074-0.221-0.147-0.332-0.216
	c-0.004,0-3.525-2.16-7.582-2.16c-7.929,0-13.59,5.819-13.59,13.749c0,4.637,2.487,8.708,4.834,11.994
	c4.127,5.781,9.757,13.281,13.478,20.7c2.326,4.641,3.424,9.15,3.424,13.289c0,5.228-3.752,8.984-8.98,8.984
	c-4.583,0-8.44-2.737-9.467-8.741c-0.197-1.152-1.131-2.562-3.062-2.369c-1.582,0.159-2.021,1.562-1.957,2.667
	c0.476,8.121,7.389,14.046,14.482,14.046c7.438,0,14.361-7.245,14.487-14.101c0.002-0.127,0.004-0.255,0.004-0.39
	c0-0.131,0-0.262-0.004-0.39C127.047,84.334,120.55,75.485,115.103,67.981z M78.877,47.598c-0.387-1.578-1.384-2.576-2.834-2.576
	s-2.383,1.078-2.698,2.576c0,0-12.371,60.692-12.371,61.182c0,1.494,1.211,2.705,2.704,2.705c1.494,0,2.388-0.889,2.705-2.609
	C66.702,107.156,69.365,93,69.365,93h13.847c0,0,2.906,14.406,3.278,16.14c0.373,1.732,1.287,2.393,2.692,2.393
	c1.493,0,2.994-1.345,2.548-3.535C91.652,107.616,79.132,48.638,78.877,47.598z M70.311,88l5.732-30.461L82.197,88H70.311z
	 M195,144.525c0,2.32,0.228,3.854,0.028,4.6c-0.281,1.04-0.557,1.927-1.157,2.66c-0.6,0.734-1.264,1.307-2.158,1.72
	c-0.894,0.414-1.787,0.62-2.759,0.62c-1.12,0-2.212-0.263-3.318-0.79c-1.107-0.527-1.917-1.18-2.45-1.96
	c-0.534-0.78-1.396-1.75-1.542-2.91c-0.08-0.52-0.644-1.833-0.644-3.94V127h-3v17.525c0,2.987,0.737,5.054,1.097,6.2
	c0.574,1.867,1.986,3.367,3.679,4.5c1.693,1.133,3.868,1.7,6.241,1.7c2.187,0,4.12-0.6,5.661-1.8c1.539-1.2,2.302-2.61,2.816-4.23
	c0.513-1.62,0.507-3.743,0.507-6.37V127h-3V144.525z"/>
</svg>
