<?xml version="1.0" encoding="utf-8"?>
<!-- Generator: Adobe Illustrator 16.0.4, SVG Export Plug-In . SVG Version: 6.00 Build 0)  -->
<!DOCTYPE svg PUBLIC "-//W3C//DTD SVG 1.1//EN" "http://www.w3.org/Graphics/SVG/1.1/DTD/svg11.dtd">
<svg version="1.1" id="Layer_1" xmlns="http://www.w3.org/2000/svg" xmlns:xlink="http://www.w3.org/1999/xlink" x="0px" y="0px"
	 width="80px" height="80px" viewBox="0 0 80 80" enable-background="new 0 0 80 80" xml:space="preserve">
<g>
	<circle fill="#D65B49" cx="39.73" cy="39.667" r="35.165"/>
	<g>
		<path fill="#E9E9E9" d="M43.749,43.314c-0.213,0-0.429-0.048-0.63-0.149c-0.617-0.311-0.916-1.025-0.705-1.684l5.331-16.554
			c0.238-0.738,1.029-1.143,1.765-0.906c0.738,0.238,1.144,1.028,0.906,1.767l-2.572,7.986l8.811-12.319
			c0.449-0.631,1.327-0.775,1.956-0.325c0.631,0.451,0.776,1.327,0.325,1.957L44.891,42.728
			C44.62,43.106,44.189,43.314,43.749,43.314z"/>
	</g>
	<path fill="#BA3325" d="M22.426,39.667c1.684-1.684,8.277-5.051,11.925-4.068s4.489,1.964,7.154,2.525
		c2.666,0.561,8.417,0.561,9.961,1.543c1.543,0.982-3.367,5.752-7.716,6.733C39.4,47.383,22.426,39.667,22.426,39.667z"/>
	<path fill="#FFB168" d="M55.534,39.584H19.312c0,5,5.133,11.375,11.133,13.796v4.204h14v-3.719
		C51.444,51.718,55.534,45.584,55.534,39.584z"/>
</g>
</svg>
