<?xml version="1.0" encoding="utf-8"?>
<!-- Generator: Adobe Illustrator 16.0.4, SVG Export Plug-In . SVG Version: 6.00 Build 0)  -->
<!DOCTYPE svg PUBLIC "-//W3C//DTD SVG 1.1//EN" "http://www.w3.org/Graphics/SVG/1.1/DTD/svg11.dtd">
<svg version="1.1" id="Layer_1" xmlns="http://www.w3.org/2000/svg" xmlns:xlink="http://www.w3.org/1999/xlink" x="0px" y="0px"
	 width="80px" height="80px" viewBox="0 0 80 80" enable-background="new 0 0 80 80" xml:space="preserve">
<circle fill="#FFFFFF" cx="40" cy="40.101" r="36.399"/>
<path fill-rule="evenodd" clip-rule="evenodd" fill="#D65B49" d="M27.602,18.555c0.83,0.282,1.344,0.888,1.737,1.642
	c1.484,2.84,2.984,5.673,4.477,8.509c0.669,1.271,0.514,2.359-0.494,3.387c-0.624,0.638-1.25,1.276-1.896,1.892
	c-0.423,0.403-0.581,0.858-0.336,1.391c0.447,0.972,0.815,2.003,1.407,2.882c2.702,4.02,6.053,7.395,10.253,9.861
	c0.649,0.381,1.406,0.584,2.121,0.85c0.418,0.155,0.758-0.027,1.051-0.324c0.743-0.756,1.486-1.513,2.231-2.267
	c1.022-1.033,2.423-1.219,3.67-0.482c2.712,1.601,5.419,3.215,8.139,4.804c0.672,0.393,1.201,0.883,1.484,1.617
	c0,0.251,0,0.502,0,0.754c-0.268,0.429-0.469,0.923-0.814,1.276c-1.903,1.937-3.846,3.836-5.769,5.756
	c-0.513,0.512-1.098,0.897-1.788,1.113c-0.304,0.095-0.618,0.156-0.928,0.232c-0.363,0-0.726,0-1.089,0
	c-0.148-0.026-0.296-0.055-0.444-0.078c-1.03-0.164-2.081-0.25-3.09-0.503c-3.685-0.924-6.956-2.741-10.089-4.829
	c-2.589-1.725-4.876-3.808-7.09-5.979c-3.093-3.031-5.839-6.334-8.038-10.076c-1.47-2.5-2.644-5.123-3.296-7.959
	c-0.182-0.796-0.306-1.605-0.456-2.409c0-0.586,0-1.173,0-1.759c0.175-1.355,0.927-2.359,1.887-3.282
	c1.704-1.641,3.36-3.332,5.025-5.014c0.446-0.452,0.915-0.849,1.549-1.002C27.211,18.555,27.407,18.555,27.602,18.555z"/>
</svg>
