<?xml version="1.0" encoding="utf-8"?>
<!-- Generator: Adobe Illustrator 16.0.4, SVG Export Plug-In . SVG Version: 6.00 Build 0)  -->
<!DOCTYPE svg PUBLIC "-//W3C//DTD SVG 1.1//EN" "http://www.w3.org/Graphics/SVG/1.1/DTD/svg11.dtd">
<svg version="1.1" id="Layer_1" xmlns="http://www.w3.org/2000/svg" xmlns:xlink="http://www.w3.org/1999/xlink" x="0px" y="0px"
	 width="80px" height="80px" viewBox="0 0 80 80" enable-background="new 0 0 80 80" xml:space="preserve">
<circle fill="#FFFFFF" cx="40" cy="40" r="36.399"/>
<g>
	<g>
		<path fill="#D65B49" d="M27.399,37.072h6.84c-0.964-3.454-1.501-5.496-1.608-6.125c-0.195-1.025-0.293-1.997-0.293-2.914
			c0-2.411,0.936-4.494,2.809-6.247c1.874-1.754,4.189-2.631,6.945-2.631c1.803,0,3.346,0.382,4.635,1.146
			c1.287,0.765,2.346,1.872,3.175,3.32c0.829,1.447,1.343,3.404,1.539,5.868h-3.669c-0.073-2.176-0.605-3.84-1.596-4.993
			c-0.991-1.15-2.316-1.727-3.977-1.727c-1.821,0-3.291,0.508-4.406,1.524c-1.119,1.016-1.678,2.353-1.678,4.008
			c0,1.457,0.258,2.923,0.776,4.398l0.188,0.485l1.208,3.886h8.676v3.481h-7.765c0.661,2.267,0.991,4.641,0.991,7.124
			c0,1.926-0.199,3.616-0.594,5.073c1.103,0.917,2.604,1.952,4.502,3.103c1.086,0.647,2.08,0.972,2.984,0.972
			c1.718,0,2.676-2.086,2.875-6.26h3.804c0.019,2.105-0.283,4.007-0.907,5.708c-0.621,1.699-1.385,2.886-2.287,3.562
			c-0.902,0.673-1.914,1.011-3.031,1.011c-1.211,0-2.52-0.315-3.928-0.944c-1.948-0.864-3.728-1.987-5.334-3.373
			c-1.494,2.879-3.625,4.317-6.395,4.317c-1.727,0-3.1-0.455-4.115-1.363c-1.018-0.908-1.524-2.145-1.524-3.709
			c0-1.727,0.595-3.201,1.78-4.425c1.188-1.223,2.591-1.835,4.211-1.835c1.203,0,2.498,0.351,3.885,1.052
			c0.124-1.205,0.188-2.159,0.188-2.86c0-2.536-0.403-4.919-1.206-7.15h-7.698V37.072z M35.089,54.261
			c-1.224-0.737-2.249-1.106-3.076-1.106c-0.595,0-1.089,0.199-1.484,0.594c-0.396,0.396-0.594,0.89-0.594,1.484
			c0,0.576,0.176,1.056,0.525,1.443c0.352,0.388,0.778,0.581,1.283,0.581C33.091,57.256,34.207,56.258,35.089,54.261z"/>
		<path fill="#D65B49" d="M47.535,62.345c-1.417,0-2.944-0.362-4.54-1.075c-1.536-0.681-2.988-1.524-4.331-2.514
			c-2.109,2.923-4.786,3.588-6.785,3.588c-2.1,0-3.821-0.587-5.115-1.746c-1.343-1.197-2.024-2.822-2.024-4.827
			c0-2.12,0.741-3.959,2.203-5.469c2.073-2.136,4.787-2.814,7.842-1.892c0.013-0.265,0.02-0.501,0.02-0.708
			c0-1.975-0.267-3.871-0.793-5.65h-6.611c-0.828,0-1.5-0.671-1.5-1.5v-3.481c0-0.829,0.672-1.5,1.5-1.5h4.868
			c-0.862-3.143-1.053-4.006-1.115-4.373c-0.207-1.084-0.314-2.16-0.314-3.167c0-2.833,1.104-5.303,3.283-7.342
			c2.152-2.015,4.834-3.036,7.971-3.036c2.065,0,3.883,0.457,5.4,1.356c1.507,0.896,2.756,2.196,3.711,3.865
			c0.937,1.635,1.52,3.82,1.732,6.494c0.033,0.417-0.109,0.83-0.394,1.137c-0.283,0.308-0.683,0.482-1.102,0.482h-3.669
			c-0.809,0-1.472-0.641-1.499-1.45c-0.062-1.815-0.477-3.184-1.234-4.065c-0.707-0.821-1.61-1.204-2.839-1.204
			c-1.448,0-2.56,0.371-3.396,1.133c-0.8,0.726-1.188,1.674-1.188,2.899c0,1.283,0.232,2.596,0.691,3.9l0.172,0.442
			c0.012,0.031,0.023,0.063,0.033,0.095l0.88,2.831h7.571c0.828,0,1.5,0.671,1.5,1.5v3.481c0,0.829-0.672,1.5-1.5,1.5h-5.845
			c0.38,1.814,0.571,3.698,0.571,5.624c0,1.637-0.14,3.143-0.415,4.49c0.958,0.727,2.165,1.533,3.601,2.403
			c0.837,0.499,1.582,0.754,2.207,0.754c0.461,0,1.207-1.287,1.377-4.832c0.038-0.8,0.697-1.429,1.498-1.429h3.804
			c0.823,0,1.493,0.664,1.5,1.487c0.02,2.277-0.316,4.376-0.999,6.237c-0.729,1.992-1.643,3.382-2.795,4.246
			C50.298,61.905,48.977,62.345,47.535,62.345z M38.273,55.027c0.356,0,0.705,0.127,0.979,0.364c1.484,1.28,3.153,2.335,4.963,3.138
			c2.18,0.974,4.005,1.182,5.454,0.102c0.651-0.488,1.266-1.483,1.774-2.875c0.411-1.118,0.668-2.355,0.769-3.692H51.36
			c-0.233,2.453-1.029,6.26-4.278,6.26c-1.173,0-2.436-0.398-3.753-1.183c-1.959-1.188-3.534-2.275-4.692-3.238
			c-0.451-0.375-0.643-0.979-0.489-1.545c0.359-1.327,0.542-2.902,0.542-4.681c0-2.33-0.313-4.585-0.932-6.704
			c-0.132-0.453-0.043-0.942,0.24-1.32c0.283-0.378,0.729-0.6,1.2-0.6h6.265v-0.481h-7.176c-0.657,0-1.237-0.427-1.433-1.055
			l-1.362-4.276c-0.587-1.668-0.877-3.315-0.877-4.938c0-2.089,0.729-3.812,2.169-5.118c1.394-1.27,3.216-1.914,5.415-1.914
			c2.107,0,3.828,0.756,5.113,2.248c0.972,1.131,1.587,2.63,1.838,4.472h0.604c-0.236-1.479-0.623-2.694-1.155-3.623
			c-0.705-1.232-1.568-2.14-2.64-2.776c-1.046-0.621-2.349-0.936-3.868-0.936c-2.384,0-4.32,0.728-5.92,2.227
			c-1.57,1.47-2.334,3.155-2.334,5.151c0,0.819,0.09,1.705,0.267,2.633c0.071,0.418,0.398,1.771,1.579,6.002
			c0.127,0.452,0.034,0.937-0.25,1.311c-0.283,0.374-0.726,0.593-1.194,0.593h-5.34v0.481h6.198c0.633,0,1.197,0.397,1.411,0.992
			c0.859,2.388,1.295,4.964,1.295,7.658c0,0.745-0.064,1.73-0.196,3.014c-0.051,0.491-0.34,0.926-0.773,1.163
			c-0.434,0.235-0.955,0.245-1.396,0.022c-2.642-1.335-4.726-1.178-6.343,0.489c-0.912,0.942-1.356,2.048-1.356,3.38
			c0,1.145,0.325,1.968,1.022,2.59c0.74,0.662,1.759,0.982,3.117,0.982c2.212,0,3.821-1.115,5.063-3.508
			c0.211-0.407,0.597-0.695,1.048-0.782C38.083,55.036,38.178,55.027,38.273,55.027z M31.744,58.756
			c-0.93,0-1.758-0.371-2.395-1.073c-0.599-0.663-0.914-1.509-0.914-2.451c0-0.99,0.357-1.87,1.034-2.546
			c1.439-1.437,3.61-1.389,6.395,0.29c0.646,0.39,0.903,1.2,0.598,1.891C35.321,57.448,33.733,58.756,31.744,58.756z M32.013,54.654
			c-0.224,0-0.328,0.06-0.425,0.155c-0.095,0.095-0.153,0.198-0.153,0.423c0,0.25,0.066,0.357,0.138,0.437
			c0.079,0.087,0.108,0.087,0.171,0.087c0.49,0,0.924-0.369,1.284-0.863C32.522,54.695,32.197,54.654,32.013,54.654z"/>
	</g>
</g>
</svg>
