<?xml version="1.0" encoding="utf-8"?>
<!-- Generator: Adobe Illustrator 16.0.4, SVG Export Plug-In . SVG Version: 6.00 Build 0)  -->
<!DOCTYPE svg PUBLIC "-//W3C//DTD SVG 1.1//EN" "http://www.w3.org/Graphics/SVG/1.1/DTD/svg11.dtd">
<svg version="1.1" id="Layer_1" xmlns="http://www.w3.org/2000/svg" xmlns:xlink="http://www.w3.org/1999/xlink" x="0px" y="0px"
	 width="80px" height="80px" viewBox="0 0 80 80" enable-background="new 0 0 80 80" xml:space="preserve">
<g>
	<circle fill="#D65B49" cx="40" cy="40" r="35.165"/>
	<path fill="#E9E9E9" d="M53.28,19.782c-2.645,0-4.786,2.143-4.786,4.786c0,1.245,0.479,2.376,1.259,3.228L24.82,58.37
		c-0.392,0.48-0.32,1.188,0.16,1.579c0.209,0.17,0.46,0.253,0.709,0.253c0.326,0,0.648-0.142,0.871-0.414l25.063-30.734
		c0.517,0.191,1.073,0.301,1.656,0.301c2.644,0,4.786-2.143,4.786-4.786S55.923,19.782,53.28,19.782z M53.28,26.532
		c-1.085,0-1.964-0.879-1.964-1.964s0.879-1.964,1.964-1.964s1.964,0.879,1.964,1.964S54.365,26.532,53.28,26.532z"/>
	<path fill="#BA3325" d="M48.307,38.837c-1.045,1.385-3.087,1.755-4.47,0.711l-3.47-2.621c-1.384-1.045-1.586-3.111-0.54-4.495l0,0
		c1.045-1.383,3.086-1.754,4.471-0.708l3.471,2.619C49.151,35.388,49.353,37.454,48.307,38.837L48.307,38.837z"/>
	<path fill="#BA3325" d="M41.932,47.45c-1.045,1.385-3.087,1.755-4.471,0.71l-3.468-2.62c-1.385-1.045-1.586-3.111-0.541-4.495l0,0
		c1.045-1.383,3.086-1.755,4.471-0.708l3.47,2.619C42.777,44.001,42.978,46.067,41.932,47.45L41.932,47.45z"/>
	<path fill="#BA3325" d="M35.75,55.814c-1.045,1.385-3.087,1.755-4.471,0.71l-3.47-2.621c-1.383-1.045-1.586-3.111-0.539-4.494l0,0
		c1.045-1.384,3.087-1.755,4.471-0.709l3.471,2.62C36.593,52.364,36.795,54.431,35.75,55.814L35.75,55.814z"/>
	<path fill="#FFB168" d="M38.847,51.798c-0.699,0.925-2.434,0.891-3.818-0.154l-3.47-2.621c-1.383-1.045-1.891-2.706-1.191-3.63l0,0
		c0.698-0.924,2.433-0.89,3.817,0.156l3.47,2.62C39.038,49.213,39.545,50.875,38.847,51.798L38.847,51.798z"/>
	<path fill="#FFB168" d="M45.165,43.076c-0.696,0.926-2.433,0.891-3.817-0.155l-3.469-2.619c-1.384-1.045-1.892-2.707-1.192-3.631
		l0,0c0.697-0.924,2.433-0.89,3.816,0.155l3.47,2.62C45.355,40.49,45.865,42.153,45.165,43.076L45.165,43.076z"/>
</g>
</svg>
