<?xml version="1.0" encoding="utf-8"?>
<!-- Generator: Adobe Illustrator 16.0.4, SVG Export Plug-In . SVG Version: 6.00 Build 0)  -->
<!DOCTYPE svg PUBLIC "-//W3C//DTD SVG 1.1//EN" "http://www.w3.org/Graphics/SVG/1.1/DTD/svg11.dtd">
<svg version="1.1" id="Layer_1" xmlns="http://www.w3.org/2000/svg" xmlns:xlink="http://www.w3.org/1999/xlink" x="0px" y="0px"
	 width="80px" height="80px" viewBox="0 0 80 80" enable-background="new 0 0 80 80" xml:space="preserve">
<circle fill="#FFFFFF" cx="40" cy="40" r="36.399"/>
<path fill-rule="evenodd" clip-rule="evenodd" fill="#D65B49" d="M26.755,57.463c0.125-2.403,0.623-4.621,1.195-6.822
	c0.409-1.576,0.859-3.143,1.332-4.701c0.13-0.426,0.03-0.644-0.315-0.888c-2.373-1.673-4.711-3.393-6.859-5.354
	c-0.913-0.833-1.796-1.695-2.447-2.759c-0.719-1.174-0.514-1.878,0.735-2.448c1.292-0.589,2.687-0.784,4.078-0.96
	c2.826-0.357,5.669-0.445,8.513-0.459c0.373-0.002,0.521-0.121,0.617-0.479c0.822-3.078,1.688-6.142,3.173-8.985
	c0.477-0.912,1.005-1.79,1.813-2.454c1.028-0.843,1.965-0.811,2.951,0.094c1.046,0.958,1.678,2.194,2.261,3.452
	c1.158,2.502,1.966,5.128,2.653,7.791c0.115,0.442,0.291,0.59,0.762,0.599c3.336,0.06,6.673,0.14,9.977,0.673
	c0.953,0.154,1.908,0.33,2.779,0.778c0.824,0.425,0.973,0.899,0.552,1.722c-0.377,0.733-0.909,1.353-1.474,1.944
	c-2.391,2.513-5.143,4.603-7.887,6.699c-0.359,0.275-0.391,0.507-0.26,0.902c0.961,2.895,1.894,5.8,2.443,8.809
	c0.217,1.191,0.443,2.392,0.188,3.61c-0.186,0.89-0.65,1.203-1.547,1.09c-1.559-0.197-2.922-0.907-4.283-1.615
	c-2.477-1.29-4.814-2.812-7.107-4.398c-0.479-0.331-0.777-0.291-1.23,0.02c-2.611,1.792-5.242,3.558-8.073,4.996
	c-0.93,0.473-1.875,0.914-2.916,1.093c-0.948,0.162-1.357-0.115-1.515-1.049C26.806,58.028,26.781,57.687,26.755,57.463z"/>
</svg>
