<?xml version="1.0" encoding="utf-8"?>
<!-- Generator: Adobe Illustrator 16.0.4, SVG Export Plug-In . SVG Version: 6.00 Build 0)  -->
<!DOCTYPE svg PUBLIC "-//W3C//DTD SVG 1.1//EN" "http://www.w3.org/Graphics/SVG/1.1/DTD/svg11.dtd">
<svg version="1.1" id="Layer_1" xmlns="http://www.w3.org/2000/svg" xmlns:xlink="http://www.w3.org/1999/xlink" x="0px" y="0px"
	 width="302.079px" height="404.333px" viewBox="0 0 302.079 404.333" enable-background="new 0 0 302.079 404.333"
	 xml:space="preserve">
<g>
	<path fill-rule="evenodd" clip-rule="evenodd" fill="#3B2217" d="M290.785,330.447c-3.672-9.787-7.14-19.657-11.907-28.994
		c-0.049-2.978-1.481-5.459-2.863-7.954c-0.398-0.295-0.848-0.462-1.34-0.512c-0.295,0.028-0.569,0.111-0.834,0.223
		c0.124-2.03-0.823-3.852-0.117-6.171c1.021-3.35-1.592-4.887-5.1-3.472c-4.487,4.034-0.953,8.009,0.09,12.001
		c0.699,1.056,1.397,2.111,2.097,3.167c-0.04,0.219-0.078,0.438-0.104,0.663c-0.062,2.843,1.894,5.908,2.981,8.451
		c1.313,3.068,2.662,6.123,4.116,9.128c1.65,3.409,3.434,6.759,5.452,9.967c1.019,1.618,4.459,8.329,6.711,8.195
		C293.02,334.957,290.785,331.448,290.785,330.447z"/>
	<path fill="#908875" d="M142.123,94.244c0.102-3.31-0.784-6.496-1.177-9.744c-0.082-0.522-0.195-1.032-0.369-1.532
		c-0.385-1.214-1.239-2.174-1.753-3.312c-1.034-9.246-3.204-18.231-5.918-27.124c-2.774-9.091-6.106-17.605-16.2-20.979
		c-0.725-0.294-1.191,0.074-1.595,0.634c-0.265,1.139-0.733,1.296-1.446,0.329c-2.492,0.097-4.917,0.423-6.968,2.031
		c-2.966,0.752-5.661,2.035-7.986,4.048C87.337,45.6,79.349,55.743,71.947,66.543C66.276,74.817,60,82.991,57,92.521
		C57,92.52,57,93,57,93h-0.315l-0.025-0.206c0.006-0.004,0.009-0.128,0.015-0.133c-0.001-0.007-0.005-0.074-0.006-0.082
		c0.005,0.006,0.007-0.019,0.012-0.014c-0.002,0.002-0.006-0.011-0.01-0.009c0.005,0.02,0.009,0.033,0.013,0.052
		c-0.012-0.017-0.021-0.032-0.033-0.05c0.004-0.012,0.009-0.025,0.014-0.036c-0.648,0.668-1.296,1.335-1.944,2.004
		c-0.352,1.023-0.704,2.045-1.056,3.069l0.008,0.018c0.682,0.336,1.363,0.672,2.045,1.008c1.586,1.382,4.013,1.231,5.404,2.957
		c2.551,1.608,5.459,1.252,8.257,1.476c6.001,1.43,12.06,2.134,18.263,1.967c6.98-0.188,13.97-0.062,20.956-0.032
		c8.487,0.546,16.896-0.726,25.341-1.137C141.469,103.484,142.823,101.699,142.123,94.244z M97.863,50.903
		c-0.304,0.337-0.519,0.721-0.629,1.164c-0.06,1.1-0.38,2.107-0.988,3.021c-1.2,1.354-2.677,2.471-3.558,4.107
		c-1.777,3.302-2.582,0.709-3.606-0.592c-0.882-0.759-2.817-0.996-1.356-2.885c1.424-1.843,2.842-3.685,4.557-5.273
		c0.7-0.859,1.402-1.716,2.231-2.455c2.588-2.208,5.705-3.877,7.259-7.142c0.001-0.002,0-0.004,0.002-0.006
		c0.191,0.117,0.372,0.137,0.541,0.062c-0.02,0.325,0.013,0.646,0.151,0.954C104.462,46.67,99.772,48.075,97.863,50.903z"/>
	<path fill-rule="evenodd" clip-rule="evenodd" fill="#F4AE85" d="M131.739,107.705c-3.332-2.375-6.27-1.098-9.123,0.979
		c0.049,1.342,0.098,2.683,0.146,4.023c-0.225,0.145-0.44,0.304-0.644,0.484c-1.062,0.969-2.014,2.077-3.35,2.706
		c-2.166,0.748-4.348,0.592-6.534,0.062c-0.438-0.111-0.882-0.196-1.335-0.232c-0.086-0.009-0.164,0.002-0.248,0.001
		c-0.521-0.188-1.105-0.223-1.674-0.294c0.045-0.134,0.084-0.274,0.102-0.437c-0.619-2.124-0.908-4.396-2.663-6.017
		c-1.713-0.801-3.441-0.81-5.188-0.108c-1.762,1.198-0.983,2.473-0.177,3.801c0.188,0.311-0.074,0.536-0.106,0.375
		c-0.116-0.583-0.528-0.706-1.015-0.754c-0.165,0.069-0.297,0.164-0.43,0.258c-0.951-0.748-0.802-1.866-0.849-2.918l0.062-0.087
		c-1.021-0.755-2.036-0.863-3.042,0.027c0.312,1.938,1.002,3.651,2.653,4.791c-0.093,0.762-0.28,1.457-1.067,1.757
		c-0.157-0.154-0.314-0.31-0.471-0.465c0.078-0.089,0.158-0.178,0.242-0.267c-0.162-2.355-1.702-4.032-2.906-5.873
		c-0.695-0.71-1.758-0.272-2.51-0.801c-0.307,0.019-0.605,0.08-0.895,0.184c-0.428,0.907-0.719,0.445-1.002-0.101
		c-0.335-0.127-0.67-0.254-1.006-0.381c-0.693-0.407-1.322-0.443-1.814,0.314c0.564,3.237,2.613,5.82,3.865,8.756
		c1.716,1.909,3.506,3.573,6.12,2.489c0.002,0.004,0.004,0.008,0.006,0.012c0.388,2.011-1.374,2.465-3.342,2.65
		c-1.968,0.187-4.393-2.773-5.817-3.813c-1.682-0.347-3.879-8.601-7.012-7.286c-3.064,1.285-3.402,4.251-1.475,7.147
		c0.662,0.994,1.323,1.989,1.984,2.984c0.112,0.243,0.252,0.479,0.462,0.694c0.003,0.004,0.005,0.009,0.009,0.013
		c-0.001-0.001-0.002-0.003-0.002-0.004c0,0,0.001,0.002,0.002,0.002c1.428,1.691,2.855,3.383,4.283,5.074
		c0.354,0.677,1.584,0.935,1.715,1.126c4.527,2.557,8.692,0.818,12.844-1.086c0.887-0.555,1.926-0.72,2.904-1.146
		c0.295-0.389,0.44-0.345,0.469,0.109c0,0-0.088,0.104-0.234,0.28c-0.508,1.409-1.395,2.734-1.407,4.344
		c1.603,2.1,3.838,2.777,6.356,2.81c3.559-3.132,8.36-11.476,8.355-11.643c3.052-0.865,9.922-2.059,10.243-2.107
		c2.864-1.144,3.899-3.388,3.786-6.322c-0.162-0.232-0.982-2.349-1.213-3.266c0.001,0,0.001,0,0.001,0
		C130.528,109.659,131.895,109.2,131.739,107.705z"/>
	<g>
		<path fill="#F4AE85" d="M248.006,67.679c0.838-0.843,1.266-1.843,1.259-3.011c1.175-0.07,1.627-1.162,2.242-2.016
			c1.277-2.416,2.133-4.92,1.688-7.709c-0.077-0.954-0.503-1.689-1.273-2.206c0.04-0.083,0.077-0.167,0.12-0.249
			c0.023-1.063-0.477-1.798-1.416-2.26c-0.479-0.069-0.932,0.005-1.361,0.229c-0.051,0.029-0.085,0.065-0.131,0.098
			c-1.888-0.038-3.775-0.076-5.663-0.114c-0.374-0.172-0.677-0.447-0.851-0.909c-1.701-1.75-3.084-3.872-5.515-4.785
			c-3.549-0.351-6.622,0.726-9.271,3.08c-0.95,1.151-1.9,2.302-2.851,3.453c2.029,3.542,5.774,3.559,8.865,4.535
			c-0.889-0.013-2.004-0.396-3.131-0.17c-0.443,0.103-0.863,0.238-1.26,0.406c-2.266-0.775-4.531-1.552-6.798-2.328
			c0,0-0.151-0.367-0.147-0.366c-1.648,0.139-2.871,0.971-3.765,2.333c-4.305,4.111-8.707,7.619-15.251,7.821
			c-5.374,0.167-10.777,1.184-15.949,2.956c-6.98,0.967-14.001,1.805-19.945,6.141c-1.022,1.914,0.428,2.667,1.666,3.514
			c1.564,0.606,2.869,1.736,4.502,2.192c1.581,0.146,2.25-0.425,4.342-0.289s8.693,0.746,13.084,0.758
			c0.473,0.07,0.938-0.497,1.437,0.004c-0.455,0.184-0.864,0.517-1.172,0.979c-0.147,0.353-0.244,0.714-0.282,1.101
			c-0.241,1.458-1.322,0.852-2.137,0.895c-1.436-0.138-2.688,0.288-3.744,1.282c-0.658,0.705-1.126,1.496-1.145,2.495
			c0.071,1.172,1.001,2.034,1.146,3.176c0.254,1.728-0.326,3.315-0.835,4.909c-3.105,13.363-4.331,26.777-0.979,40.304
			c0.328,0.79,0.764,1.485,1.58,1.865c0.898,0.063,1.484-0.4,1.926-1.125c0.113-0.508,0.817-1.829,1.607-1.992
			c2.813-0.363,5.105,2.194,8,1.413c0.256-0.133,0.522-0.23,0.793-0.312c1.422,0.602,2.844,1.202,4.267,1.803
			c0.209,0.088,2.801-3.549,3.115-3.832c0.988-0.893,2.348-1.132,3.443-1.851c1.158-0.76,1.975-1.874,2.907-2.876
			c1.403-1.506,3.574-2.256,5.108-3.725c5.407-5.173,10.807-11.581,14.909-17.849c0.479-0.732,0.934-1.475,1.273-2.285
			c0.408-1.173,0.99-2.251,1.715-3.25c0.214-0.355,0.411-0.722,0.564-1.108c0.533-1.724,1.867-2.786,3.182-3.86
			c3.267-3.99,7.139-7.658,7.146-13.391c-0.311-0.357-0.681-0.603-1.079-0.798c0.946-0.226,1.881-0.474,2.554-1.31
			c1.716-1.201,4.032-1.489,5.366-3.458c-2.672-2.737-5.509-1.269-8.301-0.499c-1.229,1.193-2.457,2.388-3.686,3.581
			c-0.129-0.02-0.26-0.032-0.396-0.032c-1.232,0.057-2.074,1.058-3.604,2.079c2.445-3.781,5.838-5.369,8.229-8.035
			c0.918-1.568,2.284-2.838,2.992-4.542c0.028-0.26,0.005-0.51-0.049-0.753C247.356,67.904,247.676,67.867,248.006,67.679z
			 M229.864,67.487c0.189,0.282,0.41,0.442,0.646,0.527c-1.013,0.421-1.99,0.889-2.797,1.585c-0.003-0.005-0.008-0.009-0.012-0.014
			c1.467-1.235,1.253-3.597,3.06-4.603C230.13,65.709,229.185,66.473,229.864,67.487z"/>
		<path fill="#F4AE85" d="M253.929,50.525c-0.092-0.605-0.185-1.212-0.277-1.817c-0.824-0.133-1.495,0.123-2,0.795
			c1.811,0.985,0.696,2.863,1.287,4.221C254.891,53.16,254.568,51.892,253.929,50.525z"/>
	</g>
	<path fill-rule="evenodd" clip-rule="evenodd" fill="#371B13" d="M250.552,50.245c-0.342-0.052-0.625,0.056-0.846,0.321
		c-2.665,0.688-5.33,1.411-7.95-0.159c-1.433-1.682-2.866-3.362-4.299-5.043c-3.06-2.165-6.061-2.901-9.167,0.024
		c-0.979,0.92-2.317,1.055-3.548,0.178c1.163-4.72,5.552-6.218,8.893-8.691c1.088-0.806,2.733-0.256,3.308,1.226
		c1.59,4.096,4.438,4.052,7.81,2.586c1.919,0.324,3.507-0.714,5.21-1.273c1.344-0.44,2.629-0.761,3.256,1.032
		c0.033,0.445-0.043,0.874-0.199,1.284c-0.805,1.218,0.214,1.863,0.84,2.628c0.207,0.94-0.434,1.983,0.338,2.861
		c0.072,0.406,0.044,0.806-0.077,1.199c-0.423,0.74-1.14,1.126-1.839,1.536C251.739,50.252,251.175,50.426,250.552,50.245z"/>
	<path fill-rule="evenodd" clip-rule="evenodd" fill="#371B13" d="M253.709,47.572c-1.397-0.996-1.386-1.994-0.006-2.995
		c-0.765-0.856-1.745-1.64-0.998-2.999v0.001c1.562-1.367-1.079-2.751,0.017-4.119c2.623,0.453,2.066,2.578,2.002,4.197
		c-0.18,4.444,1.756,1.14,2.869,0.851c1.561-0.853,2.417-0.046,3.052,1.287c0.263,1.6,2.569,2.778,0.993,4.764
		c-0.301,0.346-0.6,0.692-0.9,1.039C258.021,50.222,255.831,49.012,253.709,47.572z"/>
	<path fill-rule="evenodd" clip-rule="evenodd" fill="#371B13" d="M253.709,47.572c2.646-0.375,4.823,0.871,7.028,2.025
		c-0.379,1.637-0.758,3.274-1.137,4.911c-0.327,0.667-0.654,1.334-0.98,2.001c-0.247,0.37-0.587,0.582-1.033,0.614
		c-0.887-0.249-1.951-0.983-2.11,0.775c-0.457,0.066-0.878-0.026-1.276-0.252c-1.31-1.146-1.248-2.461-0.404-3.81
		c0.781-1.245,0.799-2.348-0.404-3.331c-0.268-0.651-0.261-1.263,0.26-1.799C253.671,48.329,253.69,47.951,253.709,47.572z"/>
	<path fill-rule="evenodd" clip-rule="evenodd" fill="#44261B" d="M224.983,51.28c3.217,1.41,6.434,2.82,9.787,4.29
		c-1.401,1.849-2.764,0.77-3.95,0.948c-2.875-0.244-5.972,0.245-8.108-2.446c-0.068-0.238-0.135-0.477-0.203-0.716
		C221.272,50.206,224.371,52.225,224.983,51.28z"/>
	<path fill-rule="evenodd" clip-rule="evenodd" fill="#351C0F" d="M252.722,37.46c0.383,1.374,1.852,2.753-0.017,4.119
		c-0.258-2.024-1.185-1.951-2.616-0.945c-1.722,1.21-3.545,1.54-5.338,0.053C247.146,38.965,249.415,36.931,252.722,37.46z"/>
	<path fill-rule="evenodd" clip-rule="evenodd" fill="#371B13" d="M266.673,43.597c0.068,2.174-1.76,2.119-3.101,2.638
		c-1.671,0.917-1.694-0.652-2.22-1.468c-0.056-0.481,0.084-0.906,0.389-1.279c1.648,0.04,3.297,0.081,4.946,0.122L266.673,43.597z"
		/>
	<path fill-rule="evenodd" clip-rule="evenodd" fill="#371B13" d="M261.712,44.489c0.621,0.585,1.242,1.169,1.861,1.749
		c-0.111,1.216-0.844,1.916-1.936,2.32c-0.627-1.3-1.254-2.601-1.882-3.9C260.354,43.989,261.011,43.984,261.712,44.489z"/>
	<path fill-rule="evenodd" clip-rule="evenodd" fill="#371B13" d="M261.712,44.489c-0.652,0.057-1.305,0.112-1.957,0.169
		c-0.083-1.356-0.811-2.066-2.161-2.149c1.83-1.569,3.554-2.687,4.147,0.979C261.731,43.821,261.722,44.155,261.712,44.489z"/>
	<path fill-rule="evenodd" clip-rule="evenodd" fill="#495A87" d="M146.704,33.485c-1.639,0.041-3.277,0.082-4.916,0.123
		c-0.331,0.461-0.647,0.45-0.949-0.029c1.59-2.655,3.879-0.807,5.865-0.912c0.34,0.182,0.452,0.363,0.34,0.546
		C146.933,33.395,146.819,33.485,146.704,33.485z"/>
	<path fill-rule="evenodd" clip-rule="evenodd" fill="#495A87" d="M140.839,33.579c0.316,0.002,0.632,0.012,0.948,0.029
		c0.241,1.657,0.481,3.314,0.722,4.972c-0.178-0.019-0.355-0.037-0.533-0.055C140.691,37.084,140.514,35.39,140.839,33.579z"/>
	<path fill-rule="evenodd" clip-rule="evenodd" fill="#371B13" d="M266.688,43.609c0.138-0.898-0.3-2.034,0.887-2.491
		c0.19-0.073,0.858,0.454,0.906,0.766c0.205,1.339-0.796,1.565-1.808,1.713L266.688,43.609z"/>
	<path fill-rule="evenodd" clip-rule="evenodd" fill="#495A87" d="M141.976,38.525c0.18,0.014,0.359,0.032,0.535,0.055
		c1.604,0.871,1.969,2.492,2.446,4.047C142.85,42.071,142.491,40.241,141.976,38.525z"/>
	<path fill-rule="evenodd" clip-rule="evenodd" fill="#37456C" d="M108.667,363.544c0.205,1.362,0.984,2.069,2.375,2.001
		c5.494-0.266,10.918,0.766,16.37,0.951c17.058,0.576,33.983,2.744,50.983,3.854c12.893,0.843,25.71,2.374,38.586,3.317
		c8.155,0.598,16.33,1.608,25.144,5.257c-5.683,2.459-10.804,2.803-15.657,3.492c-18.483,2.629-37.014,4.962-55.568,7.031
		c-12.329,1.375-24.738,2.014-37.094,3.169c-12.224,1.144-24.474,1.538-36.73,2.081c-14.771,0.654-28.061-4.412-41.442-9.312
		c-13.092-4.795-25.955-10.169-38.376-16.544c-0.593-0.304-1.234-0.533-1.779-0.904c-1.988-1.354-5.52-2.161-4.901-4.895
		c0.629-2.78,4.026-1.436,6.154-1.411c13.274,0.152,26.569-0.717,39.829,0.845c2.312,0.272,4.994,1.021,7.175-0.883
		c1.888-0.797,3.21,0.389,4.444,1.431c4.963,4.189,10.414,7.682,15.773,11.312c2.613,1.77,4.977,3.685,6.446,6.712
		c1.368,2.816,3.436,2.854,5.224,0.088c1.915-2.158,0.112-2.982-1.408-3.904c-0.592-0.459-0.952-1.039-0.946-1.811
		c0.183-0.77,0.679-1.218,1.431-1.408c7.006,1.163,6.934,1.127,10.403-5.773C105.969,366.514,105.887,363.881,108.667,363.544z"/>
	<path fill-rule="evenodd" clip-rule="evenodd" fill="#361B12" d="M83.692,367.688c1.043,1.597,2.323,2.947,4.02,3.864
		c1.566-0.594,2.193,0.977,3.306,1.43c1.065,0.707,2.255,1.298,2.582,2.709c0.36,0.301,0.722,0.602,1.083,0.902
		c1.785,1.209,3.516,2.439,1.986,4.973c-1.451,0.916-0.875,4.311-3.364,3.485c-1.815-0.602-4.31-1.509-4.534-4.066
		c-0.139-1.565-0.923-2.314-2.043-3.103c-7.679-5.41-15.332-10.856-22.994-16.291c-3.564-3.673-8.344-6.028-11.285-10.373
		c-0.521-0.771-1.636-1.474-0.961-2.576c0.826-1.348,1.988-0.613,3.09-0.268c4.846,1.518,8.726,4.691,12.853,7.439
		c4.409,2.936,8.8,5.898,13.198,8.851C82.11,365.206,83.474,365.867,83.692,367.688z"/>
	<path fill-rule="evenodd" clip-rule="evenodd" fill="#364064" d="M83.692,367.688c-1.258-0.77-2.405-1.649-3.064-3.024
		c2.109-1.789,4.795-0.043,7.017-1.143C86.575,365.146,85.959,367.199,83.692,367.688z"/>
	<path fill-rule="evenodd" clip-rule="evenodd" fill="#20263E" d="M124.516,162.351c-5.124-1.368-9.194,2.22-13.868,2.967
		c-0.488,0.146-0.974,0.304-1.443,0.507c-5.824,2.374-12.136,3.433-17.727,6.438c0.732-1.201,1.758-2.188,2.591-3.315
		c2.103-2.847,4.825-5.377,5.321-9.17c-1.426-1.391-2.621-2.915-2.983-4.935c-3.222-2.909-5.282-7.524-10.673-7.247
		c-1.752,2.617-3.605,5.174-5.236,7.865c-4.557,7.521-9.033,15.109-11.485,23.641c-1.289,4.483-0.332,5.43,4.109,4.668
		C81.933,182.256,91,180.001,99,176.755V177h-0.247c8.838-2,17.362-5.357,25.937-8.279
		C125.605,166.607,126.673,164.367,124.516,162.351z"/>
	<path fill-rule="evenodd" clip-rule="evenodd" fill="#20253E" d="M99.808,157.727c-3.249-5.086-8.708-8.135-12.078-13.109
		c2.125-3.066,4.305-6.097,6.348-9.217c0.899-1.372,1.943-2.116,3.6-1.847c5.342,0.042,9.899,2.78,14.812,4.3
		c1.718,1.162,1.886,2.763,0.769,4.28c-3.892,5.287-6.884,11.276-12.028,15.602C100.755,157.911,100.28,157.906,99.808,157.727z"/>
	<path fill-rule="evenodd" clip-rule="evenodd" fill="#EEDFC2" d="M102.599,130.652c2.086,0.909,4.172,1.817,6.258,2.726
		c2.153-0.935,3.994-0.277,5.148,1.549c0.92,1.458,0.374,2.858-1.386,3.529c-5.292-0.686-10.071-2.93-14.942-4.902
		c0.515-2.1,1.809-3.194,4.014-3.115C102.099,130.062,102.401,130.134,102.599,130.652z"/>
	<path fill-rule="evenodd" clip-rule="evenodd" fill="#B7A89D" d="M53.671,97.613c-1.119,1.454-2.529,0.829-4.553,0.905
		c1.83-1.412,3.254-0.721,4.546-0.924L53.671,97.613z"/>
	<path fill-rule="evenodd" clip-rule="evenodd" fill="#B0A188" d="M93.47,47.546c0.787,2.493,2.678,1.13,4.16,1.19
		c0.022,0.985,0.045,1.97,0.067,2.955c0.064,0.247,0.083,0.497,0.058,0.75c-0.297,0.375-0.594,0.358-0.893,0.002
		c-1.522-1.756-2.775,0.607-4.205,0.277c0.641-1.362,1.81-2.888-0.977-3.213C92.276,48.854,92.873,48.2,93.47,47.546z"/>
	<path fill-rule="evenodd" clip-rule="evenodd" fill="#8F866B" d="M128.015,44.846c0.967,2.032,1.672,3.514,2.979,6.262
		C128.026,49.049,127.489,47.493,128.015,44.846z"/>
	<g>
		<path fill-rule="evenodd" clip-rule="evenodd" fill="#F1E2C2" d="M102.708,41.56c-0.228,0.14-0.439,0.297-0.646,0.46
			c0.067-0.286,0.104-0.588,0.051-0.935c-0.148-0.152-0.295-0.306-0.441-0.459c-2.734,2.307-5.468,4.613-8.201,6.92
			c0.516,2.528,1.69,2.759,3.184,1.878c0.079,0.859,0.379,1.634,1.044,2.269c4.079-0.953,5.15-4.838,7.162-7.673
			C106.366,41.896,104.132,41.799,102.708,41.56z"/>
		<path fill-rule="evenodd" clip-rule="evenodd" fill="#F1E2C2" d="M96.985,52.455c0.008-0.196,0.009-0.392-0.018-0.583
			c-1.035-1.165-2.027-1.016-3.006-0.544c0.168-0.352,0.208-0.757-0.004-1.262c-0.451-1.072-1.342-1.083-2.277-0.559
			c-1.869,2.063-3.74,4.126-5.607,6.192c-0.662,0.732-1.473,1.501-0.666,2.543c1.025,1.325,2.205,1.123,3.353,0.091
			c-0.377,1.932,0,3.798,1.932,4.436c2.317,0.765,2.062-1.89,3.04-2.929c1.298-1.376,2.48-2.861,3.711-4.3l0,0h0.001
			c0.155-1.028,0.989-1.988,0.312-3.099C97.497,52.492,97.241,52.49,96.985,52.455z M88.76,58.333L88.76,58.333L88.76,58.333
			L88.76,58.333z"/>
	</g>
	<path fill-rule="evenodd" clip-rule="evenodd" fill="#B4A98C" d="M101.59,40.724c0.364-0.045,0.729-0.089,1.095-0.134
		c0.035,0.323,0.043,0.646,0.023,0.97c0.087,2.051-1.282,3.046-2.832,3.908C99.434,43.52,102.104,42.696,101.59,40.724z"/>
	<path fill-rule="evenodd" clip-rule="evenodd" fill="#48281B" d="M239.483,79.451c-2.219,0.399-2.8,5.727-5.254,2.97
		c-2.074-2.331,2.35-3.496,3.759-5.229c1.536-1.889,3.63-3.325,5.481-4.959c0.957,0.051,1.77,0.394,2.375,1.163
		c0.39,1.408-0.719,2.002-1.498,2.778C242.822,77.405,241.601,79.096,239.483,79.451z"/>
	<path fill-rule="evenodd" clip-rule="evenodd" fill="#CD8563" d="M227.702,69.586c-0.241-3.669,2.513-5.333,4.828-7.757
		c1.303,2.982-2.206,3.2-1.965,5.31c2.947,0.597,3.289-3.84,6.139-3.594c1.711,3.577-2.18,3.171-3.424,4.536
		C231.944,69.55,229.771,69.824,227.702,69.586z"/>
	<path fill-rule="evenodd" clip-rule="evenodd" fill="#CD8563" d="M218.258,64.428c-0.241-3.669,2.513-5.332,4.828-7.756
		c1.303,2.981-2.206,3.2-1.965,5.31c2.947,0.597,3.289-3.84,6.139-3.594c1.711,3.577-2.18,3.171-3.424,4.536
		C222.5,64.392,220.326,64.666,218.258,64.428z"/>
	<path fill-rule="evenodd" clip-rule="evenodd" fill="#361D15" d="M253.522,67.461c-0.982,1.692-1.965,3.385-2.947,5.078
		c-1.088-1.576-4.137-1.268-3.932-4.088c-0.012-0.293,0.004-0.584,0.049-0.873c0.24-0.059,0.484-0.095,0.731-0.108
		c1.343-0.999,3.177-1.223,4.212-2.701c0.232-0.377,0.477-0.737,0.71-1.111c1.443-1.363,1.175-4.897,4.65-3.689
		C257.665,63.312,255.446,65.318,253.522,67.461z"/>
	<path fill-rule="evenodd" clip-rule="evenodd" fill="#3B1C13" d="M246.644,68.451c0.608,2.038,4.291,1.119,3.932,4.088
		c0.084,0.326,0.104,0.657,0.061,0.991c-1.496,1.295-3.052,1.299-4.658,0.22c-1.035-0.178-1.99-0.485-2.508-1.517
		C243.761,70.328,245.348,69.512,246.644,68.451z"/>
	<path fill-rule="evenodd" clip-rule="evenodd" fill="#442416" d="M208.704,80.546c0.125,0.121,0.25,0.243,0.374,0.364
		C208.911,80.833,208.775,80.722,208.704,80.546c-7.052-3.044-9.227-2.703-13.068,2.759c5.389-0.926,10.211-0.996,15.035-0.844
		c1.699-0.465,2.707-1.477,2.899-4.483C211.813,79.725,210.517,80.968,208.704,80.546z"/>
	<path fill-rule="evenodd" clip-rule="evenodd" fill="#ECA985" d="M236.812,94.606c-0.461,1.993-1.662,3.493-3.186,4.777
		C233.585,97.056,234.698,95.497,236.812,94.606z"/>
	<path fill-rule="evenodd" clip-rule="evenodd" fill="#CB7F5C" d="M241.771,81.545c0.934-1.387,2.402-1.76,3.909-2.058
		c0.599,0.638,0.604,1.275-0.001,1.913c-0.183,0.13-0.387,0.197-0.608,0.199C243.972,81.582,242.872,81.563,241.771,81.545z"/>
	<path fill-rule="evenodd" clip-rule="evenodd" fill="#BB978F" d="M192.671,79.528c-0.027-0.603-0.054-1.205-0.08-1.806
		c1.086,0.001,2.174,0.001,3.414,0.001C195.201,79.269,193.965,79.456,192.671,79.528z"/>
	<path fill-rule="evenodd" clip-rule="evenodd" fill="#442416" d="M191.569,80.321c-3.965-2.287-6.557,1.829-10.457,1.463
		c1.474,2.073,3.013,2.007,4.455,2.193c1.112-0.84,2.228-1.673,3.76-1.224c0.916,0.902,2.078,1.172,2.979,0.304
		C193.19,82.205,191.567,80.319,191.569,80.321z"/>
	<path fill-rule="evenodd" clip-rule="evenodd" fill="#C07C59" d="M197.798,86.812c-3.094,0.767-7.383,0.299-8.295,1.347
		c1.352,0.8,5.207,0.244,8.563-0.262c3.356-0.507,8.032-1.791,8.731-3.117C205.211,84.408,200.892,86.045,197.798,86.812z"/>
	<path fill-rule="evenodd" clip-rule="evenodd" fill="#3B1C13" d="M248.726,64.635c0.63-0.743,1.26-1.486,1.891-2.229
		c1.188,0.253,1.865,0.994,2.083,2.177c-0.364,3.508-2.938,2.983-5.275,2.888C247.858,66.524,248.292,65.579,248.726,64.635z"/>
	<path fill-rule="evenodd" clip-rule="evenodd" fill="#F5B08C" d="M252.652,54.578c-0.784-0.443-0.933-1.189-0.949-1.998
		c-0.384-0.778-0.768-1.557-1.151-2.334c0.367-0.248,0.732-0.496,1.1-0.743c2.439,0.307,1.897,2.147,1.909,3.705
		C253.372,53.74,253.069,54.196,252.652,54.578z"/>
	<path fill-rule="evenodd" clip-rule="evenodd" fill="#495A87" d="M196.854,16.792c-2.09-1.684-4.566-1.792-7.127-1.792
		c-0.001,0,0.272,0,0.272,0v-0.448c-1-0.624-3-1.262-4-1.887v-0.007v-0.003v-0.003v-0.012c0-0.017-1.694,0.359-2.425,0.359h0.031
		h0.016c-2.611-1-5.039-2.986-7.969-1.223c-1.018-0.013-2.032-0.126-3.051-0.14c-0.146-2.171-1.815-1.975-3.214-1.992
		c-3.224-0.039-6.446-0.013-9.67,0.003c-2.614,0.354-4.774,1.391-5.989,3.89v-0.005v-0.002l0,0l0,0
		c0.324,0.657,0.648,1.312,0.974,1.969c-0.81,2.342,0.752,3.677,2.204,5.047c0.801,1.912,2.093,3.254,4.093,4.079
		c0-0.001,0-0.002,0-0.003c0,0.001-0.029,0.002-0.029,0.003c0.26,0.659,0.504,1.319,0.763,1.979c1.983,2.67,4.164,5.135,6.979,6.973
		c0.354,0.384,0.702,0.768,1.056,1.151c0.054,1.859,1.422,3.154,2.606,4.22c2.031,1.826,0.36,3.052-0.74,4.052H172v-0.424
		c-1-0.723-2.556-1.147-3.989-1l0,0c-0.062-1.994-2.011-2.031-3.011-2.108c0-0.001,0-0.001,0-0.002
		c-1-0.921-2.593-2.466-4.362-0.466h0.011c-1.652-1-3.3-2.212-4.953-3.214c-1.263-0.614-2.368-1.363-3.85-1.093
		c-1.373-1.4-2.845-1.691-4.845-2.027c0,0.183,0,0.364,0,0.547c0-0.038-0.542-0.09-0.746-0.118c-1.468,0.133-3.054-0.469-4.49,0.253
		c-1.148,1.806-0.068,3.351,0.534,4.955c0.974,1.396,1.338,3.159,2.68,4.324c0.234,0.325,0.459,0.651,0.694,0.977
		c-0.322,0.329-0.382,0.698-0.169,1.108c1.619,0.394,1.871,2.091,2.91,3.036c0.109,0.072,0.202,0.154,0.294,0.237
		c-0.021,0.256-0.041,0.513-0.061,0.769c0.087,1.374,0.854,2.267,2.03,2.871c1.141,1.153,1.34,3.4,3.578,3.181
		c0.196-0.02,0.254-1.455,0.376-2.233c0.015-0.974,0.029-1.947,0.044-2.922l0,0c0.758-2.021-0.232-4.65,2.125-6.115
		c1.992-0.678,3.967,1.711,5.965,0.035c0.639,0.336,1.275,0.673,1.913,1.009c2.481,1.444,5.274,1.589,8.022,1.915
		c1.973,0.393,3.945,0.785,5.918,1.178c0.412,2.479,1.809,1.505,3.104,0.885c5.66-0.128,6.266-1.339,3.971-7.93l0,0
		c-0.009-0.372-0.018-0.743-0.025-1.115l0,0c-1.018-1.977-2.036-3.953-3.054-5.931h-0.001l0,0c-0.22-2.666-1.884-4.716-2.992-7.003
		c-1.015-2.004-2.029-4.008-3.043-6.012h-0.001c-0.656-1.822,0.109-2.508,1.88-3.121c3.389-1.176,6.835-0.578,10.245-0.856
		c0.97,0.013,1.939,0.025,2.909,0.038c1.764,1.109,3.52,1.864,5.241,0.048C196.852,16.675,196.854,16.792,196.854,16.792z
		 M172.659,45.724c0.007,0.005,0.014,0.009,0.021,0.014c-0.008-0.001-0.017-0.002-0.024-0.003
		C172.655,45.734,172.658,45.727,172.659,45.724z M172.655,45.735L172.655,45.735L172.655,45.735L172.655,45.735z"/>
	<path fill-rule="evenodd" clip-rule="evenodd" fill="#351C0F" d="M252.705,41.578c0.333,1,0.665,1.999,0.998,2.999
		c-1.302-0.151-2.921-0.316-3.204-1.664C250.264,41.796,251.738,41.701,252.705,41.578z"/>
	<path fill-rule="evenodd" clip-rule="evenodd" fill="#ACA491" d="M108.651,24.763L108.634,25c0,0-0.001,0-0.002,0
		c-1.51,0-2.543,0.775-0.509,1.616c1.948,0.805,4.188,0.787,6.3,1.196c0.067,0.567,0.135,1.076,0.203,1.644
		c-0.32,1.039-0.641,2.05-0.961,3.089c0.238,1.107-0.463,2.506,0.838,3.377c1.354-0.959,1.172-2.175,1.227-3.308l0.001-0.003
		c0.325-0.352,0.65-0.705,0.976-1.056c0.336-0.983,0.672-1.966,1.009-2.949c2.597-1.691,6.234-0.316,8.676-2.83
		C120.722,23.595,113.556,23.274,108.651,24.763z"/>
	<path fill-rule="evenodd" clip-rule="evenodd" fill="#361D15" d="M252.938,53.724c0.33-1.065,0.66-2.132,0.99-3.198
		c1.413-0.757,2.215-1.317,1.99,1.267c-0.178,2.035-3.147,3.433-1.209,5.787c0.55,2.679-1.668,4.565-2.001,6.991l-0.01,0.012
		c-1.019-0.416-1.693-1.16-2.083-2.177c0.336-2.698,2.363-4.956,2.036-7.827C252.833,54.321,252.928,54.037,252.938,53.724z"/>
	<path fill-rule="evenodd" clip-rule="evenodd" fill="#3B1C13" d="M252.709,64.57c-0.396-2.634,0.85-4.799,2.001-6.991
		c0.328,0,0.656,0,0.984,0.001c0.932,0.385,1.545,0.938,1.082,2.057c0,0,0.02-0.008,0.021-0.007
		C254.317,60.352,254.591,63.354,252.709,64.57z"/>
	<path fill-rule="evenodd" clip-rule="evenodd" fill="#361D15" d="M256.776,59.637c-0.361-0.686-0.722-1.371-1.082-2.057
		c0.009-1.965,1.109-1.379,2.155-0.921C257.75,57.745,257.823,58.893,256.776,59.637z"/>
	<path fill-rule="evenodd" clip-rule="evenodd" fill="#20253D" d="M93.6,375.691c-0.974-0.693-1.947-1.389-2.921-2.083
		c-0.266-0.944,0.002-1.372,1.029-1.06c1.422,0.033,2.416,0.719,3.031,1.983C94.36,374.918,93.979,375.305,93.6,375.691z"/>
	<path fill-rule="evenodd" clip-rule="evenodd" fill="#20253D" d="M91.708,372.549c-0.343,0.354-0.686,0.706-1.029,1.06
		c-0.988-0.685-1.978-1.37-2.967-2.056C89.543,369.885,90.532,371.594,91.708,372.549z"/>
	<path fill-rule="evenodd" clip-rule="evenodd" fill="#F4E5C4" d="M196.712,133.489c-2.849,0.107-5.037-2.566-8.018-1.906
		c-0.656,0.345-2.014,1.661-2.075,1.97c0.04,0.328,0.042,0.656,0.005,0.984c-0.326,0.306-0.652,0.611-0.979,0.917
		c-0.336-0.338-0.671-0.676-1.006-1.013c-2.299,0.036-1.949,1.682-1.908,3.141c0.947,1.521,1.92,2.295,2.987,0.496
		c0.007,0.003,0.013,0.006,0.02,0.009c1.462-0.179,2.92-0.36,2.978-2.268c0.098,0.101,0.208,0.195,0.354,0.279
		c2.925,0.37,0.75,2.438,1.217,3.623c-1.637,0.665-2.188,3.602-3.438,2.841c-3.261-1.979-8.225,0.528-10.281-4.08
		c-6.351-0.413-11.956,2.422-17.83,4.086c-6.412,0.272-11.055,4.425-16.205,7.439c-0.994,0.582-1.751,1.525-1.688,2.844
		c-1.108,1.129-1.624,2.809-3.226,3.481c-7.664,13.192-6.461,26.359,0.105,39.512c1.496-0.394,2.406-1.749,3.792-2.324
		c1.229-0.525,2.447-1.082,3.568-1.821c1.842-1.91,3.483-4.016,5.522-5.74c12.573-10.631,24.285-22.173,35.785-33.932
		c2.766-2.826,5.396-5.815,6.549-9.737c1.345,0.06,2.38-0.395,2.855-1.786c1.561-2.109,5.371-1.542,5.862-4.925
		C200.634,133.405,198.788,133.177,196.712,133.489z"/>
	<path fill-rule="evenodd" clip-rule="evenodd" fill="#CE8665" d="M96.709,115.581c-1.073-1.951-2.848-3.534-3.103-5.914
		c0.533-0.618,1.201-0.703,1.945-0.494c1.753,1.398,2.652,3.289,3.117,5.429c0.236,0.705,0.472,1.409,0.707,2.114
		c-0.554-0.048-1.107-0.095-1.66-0.143C97.337,116.286,96.772,116.187,96.709,115.581z"/>
	<path fill-rule="evenodd" clip-rule="evenodd" fill="#CE8562" d="M98.652,109.635c0.688-0.003,1.377-0.005,2.065-0.008
		c-0.035,2.407,2.241,3.87,2.709,6.473c-2.473-0.088-2.169-2.826-3.744-3.402C97.608,112.259,97.857,111.038,98.652,109.635z"/>
	<path fill-rule="evenodd" clip-rule="evenodd" fill="#ACA18B" d="M81.556,104.635c2.715,0.283,5.583-0.931,8.148,0.828
		C86.97,105.365,84.146,106.147,81.556,104.635z"/>
	<path fill-rule="evenodd" clip-rule="evenodd" fill="#252C45" d="M234.189,179.733c-9.296-8.861-35.457-27.144-37.337-28.285
		c-4.188-0.523-3.91,2.474-4.045,5.143c0.427,1.814,1.789,2.948,3.018,4.177c0.531,0.487,1.1,0.907,1.777,1.168
		c0.312,0.061,10.094,8.809,15,12.983c5.635,4.794,5.752,4.654,1.711,10.179c-0.029,0.977,0.354,1.82,0.852,2.627
		c0.538,0.756,1.242,1.331,2.001,1.849c2.343,1.032,3.269,4.372,6.494,3.959c2.845-3.109,6.737-4.786,10.024-7.301
		C236.423,184.137,236.711,182.137,234.189,179.733z"/>
	<path fill-rule="evenodd" clip-rule="evenodd" fill="#3B2217" d="M190.905,139.583c-0.537,0.829-1.097,1.646-1.605,2.491
		c-0.732,1.216-0.747,3.341-2.488,3.326c-2.037-0.018-1.553-2.534-2.61-3.66c-4.919,3.168-4.919,3.168-7.634-3.256
		c0.07-1.104-1.416-2.134-0.436-3.165c1.023-1.078,2.108,0.058,3.083,0.461c1.212,0.502,2.347,1.192,3.516,1.802
		c1.048,0.529,2.071,1.742,3.196,0.116c0.935-0.681,1.869-1.36,2.803-2.04c1.114-0.193,2.228-0.386,3.466-0.601
		C192.743,136.854,191.082,138.027,190.905,139.583z"/>
	<path fill-rule="evenodd" clip-rule="evenodd" fill="#3B496F" d="M158.737,142.568c-6.337,2.778-12.53,5.807-17.893,10.282
		c-2.387-0.468-3.35-2.476-4.832-4.394c6.14-3.729,12.896-5.198,19.607-6.757C156.693,141.45,157.98,141.281,158.737,142.568z"/>
	<g>
		<path fill-rule="evenodd" clip-rule="evenodd" fill="#645E68" d="M47.567,101.5c0.372,0.329,0.744,0.658,1.117,0.988
			c1.41,0.035,2.82,0.07,4.229,0.105C51.472,100.555,49.779,99.758,47.567,101.5z"/>
		<path fill-rule="evenodd" clip-rule="evenodd" fill="#645E68" d="M165.652,98.614c-0.864,1.582-3.023,0.411-3.952,1.86
			c-1.156,0.316-2.314,0.634-3.472,0.95c-0.495-0.196-1.009-0.102-1.538,0.217c-1.392,0.073-3.048-0.44-3.804,1.044
			c-0.092,0.025-0.184,0.051-0.275,0.075c0.032,0.031,0.065,0.062,0.098,0.094c-0.572,0.026-1.102,0.147-1.507,0.544
			c-4.119-1.289-8.092-0.206-12.078,0.638c-0.554,0.031-1.169,0.152-1.654,0.118c-0.301-0.021-0.605,0.198-0.895,0.362
			c-5.631,0.395-11.262,0.788-16.894,1.183c-2.006-0.066-4.012-0.132-6.019-0.198c-6.963-0.69-13.928-0.646-20.894-0.022
			c-0.233,0.02-0.466,0.038-0.698,0.058c-0.775-0.259-1.616-0.384-2.357-0.705c-0.463-0.108-0.934-0.183-1.408-0.204
			c-2.486-0.116-5.005,0.169-7.45-0.528c-5.383,0.194-10.521-1.815-15.889-1.786c-1.04-0.26-2.122-0.292-3.153-0.591
			c-1.11-0.135-2.107,0.229-3.079,0.7c-0.331,0.045-0.663,0.09-0.995,0.134c-1.396-1.723-2.734-0.536-4.084,0.081
			c1.023,1.227,3.279,1.097,4.72,1.34c2.04,0.345,4.071,0.736,6.103,1.13c4.092,0.792,8.185,1.601,12.328,2.064
			c2.65,0.297,5.396,0.2,8.006,0.771c1.78,0.389,3.433,1.113,5.256,1.341c1.961,0.244,3.928,0.054,5.889,0.201
			c1.712,0.128,3.223,0.616,4.949,0.401c5.342-0.666,10.716,0.116,16.059-0.769c2.531-0.419,5.015-0.384,7.563-0.591
			c3.93-0.319,7.786-1.167,11.665-1.834c3.728-0.641,7.596-0.645,11.265-1.576c2.623-0.666,5.347-1.04,7.994-1.63
			c2.622-0.583,5.454-0.174,7.778-1.781c0.613-0.424,1.071-0.891,1.773-1.179c0.53-0.217,1.612-0.175,1.853-0.848
			C167.164,98.814,166.366,98.644,165.652,98.614z"/>
	</g>
	<path fill-rule="evenodd" clip-rule="evenodd" fill="#B2A78D" d="M140.726,93.649c0,0.498-0.023,0.999,0.004,1.496
		c0.354,6.37-0.119,7.139-6.688,7.35c-8.449,0.271-16.845,1.671-25.325,1.145c-13.351-0.525-26.818,1.232-40.029-2.038
		c-2.724,0.134-5.382-0.209-7.97-1.079c0,0,0,0,0-0.001c-0.925-0.815-2.01-1.212-3.137-1.494c-0.607-0.277-1.182-0.575-1.468-1.058
		c-0.788-0.426-2.458-1.892-1.394-3.445c-5.437-0.243-20.533,2.782-18.962,4.043s7.93,1.726,11.81,2.933
		c1.939-0.404,3.684,0.147,5.348,1.094c0.247,0.006,0.494,0.021,0.74,0.044c1.394,0.508,5.567,0.135,5.607,0.058
		c0.807,0.014,1.624,0.305,2.431,0.305H62c0,0,0-0.579,0-0.578c1,0.07,1.705,0.578,2.643,0.578c-0.001,0-0.075,0-0.075,0
		c5.606,1,11.25,1.904,17.024,1.793c2.629,1.129,5.496-0.337,8.13,0.749l-0.013,0.23c1.124,0.489,2.271,0.323,3.421,0.121
		c4.44-0.397,9.025,0.943,13.389-0.39c1.146,0.001,2.293-0.002,3.44,0c1.407,0.521,2.94,0.609,4.353,1.098
		c1.916,0.436,3.871,0.319,5.811,0.396c5.428-0.014,10.754-1.142,16.154-1.493c5.121-0.985,10.347-1.104,15.484-1.926
		c0.282-0.045,0.565-0.075,0.851-0.086c1.112-1.193,2.753-1.212,4.116-1.851c0.301-0.036,0.602-0.054,0.904-0.052
		c1.49,0.567,2.911,0.196,4.316-0.333c0.858-1.412,3.529-0.27,3.703-2.642C157.522,96.058,149.015,95.405,140.726,93.649z"/>
	<path fill-rule="evenodd" clip-rule="evenodd" fill="#B6A88B" d="M88.696,57.598c0.979-1.786,2.429-3.131,4.055-4.313
		C92.321,55.585,91.44,57.467,88.696,57.598z"/>
	<path fill-rule="evenodd" clip-rule="evenodd" fill="#C78264" d="M245.679,81.4c0.001-0.637,0.001-1.274,0.001-1.912
		c1.729-1.104,3.46-2.206,6.275-4c-3.616,0-6.005,0-8.394,0c0.805-0.58,1.609-1.16,2.414-1.738c1.555-0.073,3.107-0.146,4.66-0.22
		c3.548,1.726,3.273,3.342-0.188,4.751C248.642,79.017,247.058,80.037,245.679,81.4z"/>
	<path fill-rule="evenodd" clip-rule="evenodd" fill="#20253D" d="M147.749,199.551c0.318-0.325,0.639-0.651,0.957-0.977
		c1.582,1.723,3.27,3.396,2.928,6.05c-2.338,2.212,0.605,5.804-2.077,7.924C149.565,208.131,150.897,203.529,147.749,199.551z"/>
	<path fill-rule="evenodd" clip-rule="evenodd" fill="#52576B" d="M155.792,199.771c-0.035-0.415-0.069-0.83-0.104-1.245
		c1.686-2.557,4.196-3.12,7.028-2.907c0.312,0.412,0.359,0.852,0.146,1.321C160.901,198.87,158.573,199.89,155.792,199.771z"/>
	<path fill-rule="evenodd" clip-rule="evenodd" fill="#5A6277" d="M162.729,196.423c-0.007-0.268-0.011-0.536-0.012-0.804
		c1.987,0.002,3.976,0.003,5.962,0.005c-0.4,0.718-1.043,0.983-1.83,0.979C165.433,197.53,164.042,197.866,162.729,196.423z"/>
	<path fill-rule="evenodd" clip-rule="evenodd" fill="#353D61" d="M195.795,140.505c-0.897,0.419-1.794,0.838-2.691,1.257
		c-3.214,3.966-6.213,8.089-9.804,11.766c-11.39,11.664-23.403,22.656-35.471,33.601c-1.266,1.147-9.064,6.83-9.616,7.797
		c-1.066-3.284-2.403-6.467-3.162-9.869c-2.198-9.858-1.107-19.299,3.164-28.408c-0.273-1.398-1.316-2.034-2.523-1.801
		c-4.694,0.904-9.618,1.549-11.46,7.099c0.223,2.217-0.37,4.486,0.481,6.652c1.265,0.969,0.804,2.396,1.015,3.663
		c0.912,5.497,1.89,10.984,2.844,16.475c1.3-0.493,1.066,0.779,1.465,1.296c2.088,2.706,3.242,6.107,6.117,8.221
		c1.013-0.057,1.695-0.531,2.039-1.424c3.6-0.646,6.646,0.784,9.557,2.723c0.912,0.256,1.357,0.055,0.957-0.977
		c-1.072-1.963-3.012-2.53-4.961-3.083c-0.269-0.292-0.564-0.554-0.865-0.809c0.617-0.229,1.193-0.823,1.797-1.18
		c0.002-0.295,0.021-0.589,0.055-0.882l0,0v0.001c0.658-0.066,1.432,0.07,1.955-0.229c6.876-3.932,13.76-7.855,20.546-11.938
		c2.7-1.625,5.563-3.771,5.224-7.219c-0.496-5.021,2.439-6.086,6.234-6.721c1.004-0.32,2.008-0.64,3.012-0.96
		c0.842,0.427,0.961,1.215,1.015,2.034c2.392-0.006,3.952-2.198,6.267-2.396c3.381-1.47,4.547-4.304,4.763-7.726
		c-0.013-2.547-0.233-5.202,3.106-6.019c-2.117-2.171-0.323-4.242,0.207-6.313C197.528,143.303,198.852,141.337,195.795,140.505z"/>
	<path fill-rule="evenodd" clip-rule="evenodd" fill="#20253D" d="M266.725,281.789c-0.231-2.42-1.442-2.551-3.354-1.594
		c-6.893,3.449-22.432,10.006-22.793,10.236c-0.09,0.137-3.246,1.072-4.727,1.676c-9.713,3.965-19.004,8.882-28.753,12.762
		c-6.56,2.611-6.616,2.48-10.307-3.346c-2.032-3.207-3.373-6.908-6.456-9.397c-0.328,0.012-4.938-8.91-5.229-9.499
		c-3.297-6.676-6.971-13.139-11.076-19.351c-0.373-0.563-3.814-6.761-5.646-10.149c5.543,5.207,11.036,9.185,17.377,11.854
		c14.194,5.975,29.845-8.051,31.84-9.328c2.336-1.497,5.016-2.496,6.928-5.862c-6.488,1.304-16.49,6.453-20.407,6.787
		c-0.354-3.844,9.63-9.437,12.177-14.629c-6.037,2.707-14.055,7.213-18.199,8.963s-11.062,1.382-14.724-1.395
		c-4.737-3.593-9.474-7.185-14.132-10.88c-2.402-1.904-3.72-4.295-3.139-7.332c0.682-3.574,0.612-7.236,1.447-10.778
		c0.26-1.254,0.292-2.499-0.154-3.726c-0.514-1.178-1.404-2.066-2.282-2.963c-1.156-0.913-0.26-7.23,1.577-6.305l-0.059-0.354
		c1.312-0.819,2.027-1.93,1.727-3.539c-0.8-0.788-1.777-1.416-2.346-2.396c0.095-0.098,0.195-0.183,0.279-0.3
		c0.836-1.007,1.285-2.076,0.55-3.344c0.001-0.26,0.002-0.52,0.004-0.779c0.577-0.038,1.153-0.094,1.727-0.204
		c1.304-0.305,2.502-0.823,3.503-1.741c2.982-5.359,3.711-11.596,6.787-16.954c1.871-3.259,3.908-6.535,4.639-10.342
		c-0.017-1.121-0.378-2.033-1.496-2.492c-1.295-0.31-2.529,0.129-3.783,0.313c-2.953,0.845-6.65,0.82-6.712,5.245
		c-0.07,4.996-3.104,7.828-7.025,10.076c-4.888,2.803-25.624,15.515-26.368,15.914c-0.615,0.33-1.358,0.949-2.102,0.844
		c-0.609-0.086-0.695-0.749-0.854-1.247c-0.216-0.676-0.478-1.265-0.858-1.865c-1.413-2.233-2.979-4.314-4.525-6.457
		c-1.055-1.46-0.827,0.47-1.207,0.824c0.072,2.271,0.143,4.541,0.212,6.812c0.013,0.416,3.146,14.49,3.321,14.95
		c0.498,1.297,8.486,19.861,9.521,21.58c1.34,2.225,2.938,4.331,3.939,6.742c0.994,2.395,1.846,4.555,0.843,7.115
		c-1.997,5.1-3.495,10.387-4.933,15.641c-1.826,6.673-5.75,12.715-5.941,19.857c-3.751,11.015-8.633,21.561-14.805,31.366
		c-10.754,17.081-22.029,33.832-33.086,50.722c-1.459,1.345-3.329,2.271-4.239,4.17c0.128,2.406,1.723,3.553,3.735,4.34
		c1.475,0.061,2.891,0.324,4.172,1.096c1.06,0.672,2.305,0.891,3.428,1.404c0.907,0.367,1.895,0.605,2.707,1.122
		c3.701,2.353,5.62,1.478,6.828-2.856c0.902-3.24,2.889-6.18,4.393-9.252c6.465-14.162,12.737-28.417,19.457-42.458
		c5.219-10.907,8.182-22.693,13.571-33.509c2.569-10.775,7.041-20.928,10.336-31.467c0.997-3.188,1.642-6.582,3.863-9.893
		c2.685,5.148,8.518,17.745,9.63,19.109c0.057,0.08,11.908,24.721,13.037,25.508c3.887,8.862,8.847,17.097,14.535,24.908
		c1.611,2.215,3.432,3.361,6.379,2.392c17.043-5.608,34.123-11.107,51.189-16.644c0.614-0.027,12.965-4.013,18.049-5.924
		C270.054,291.559,266.839,282.985,266.725,281.789z"/>
	<path fill-rule="evenodd" clip-rule="evenodd" fill="#E8AB85" d="M163.351,208.018c0.447,0.525,0.885,0.822,0.948,1.186
		c0.048,0.277-0.378,0.638-0.593,0.961c-0.288-0.29-0.727-0.539-0.818-0.881C162.808,208.988,163.124,208.588,163.351,208.018z"/>
	<path fill-rule="evenodd" clip-rule="evenodd" fill="#F6E6CC" d="M136.212,179.166c1.624,2.81,2.459,5.725,0.891,8.948
		C136.806,185.131,136.509,182.148,136.212,179.166z"/>
	<path fill-rule="evenodd" clip-rule="evenodd" fill="#F6E4CB" d="M138.101,163.311c-1.32,2.115-1.242,4.414-1.229,6.729
		C135.581,167.492,135.14,165.09,138.101,163.311z"/>
	<path fill-rule="evenodd" clip-rule="evenodd" fill="#B0B2AC" d="M142.554,178.455c-1.244,0.064-1.783-0.469-1.747-1.442
		c0.04-1.075,0.575-1.966,1.688-2.123c1.206-0.172,1.866,0.608,1.813,1.756C144.253,177.795,143.423,178.331,142.554,178.455z"/>
	<path fill-rule="evenodd" clip-rule="evenodd" fill="#B3B3AB" d="M152.312,155.947c1.204,0.085,1.406,0.763,1.277,1.42
		c-0.246,1.27-1.077,2.049-2.418,2.084c-0.838,0.022-1.236-0.589-1.031-1.3C150.485,156.958,151.457,156.323,152.312,155.947z"/>
	<path fill-rule="evenodd" clip-rule="evenodd" fill="#B4B2AA" d="M169.817,144.697c0.738,0.011,1.485,0.073,1.459,0.911
		c-0.047,1.429-1.175,1.787-2.33,1.908c-0.787,0.082-1.883-0.005-1.67-1.076C167.517,145.221,168.812,144.977,169.817,144.697z"/>
	<path fill-rule="evenodd" clip-rule="evenodd" fill="#FAE4CD" d="M151.573,180.027c0.014,0.953-0.607,1.41-1.379,1.713
		c-0.664,0.261-1.412,0.223-1.082-0.691c0.243-0.672,0.951-1.254,1.584-1.684C151.246,178.991,151.473,179.544,151.573,180.027z"/>
	<path fill-rule="evenodd" clip-rule="evenodd" fill="#F9E2CD" d="M170.759,142.511c-0.506,0.148-1.092,0.415-1.687,0.438
		c-0.177,0.007-0.38-0.674-0.571-1.039c0.468-0.105,0.934-0.282,1.403-0.294C170.309,141.605,170.912,141.539,170.759,142.511z"/>
	<path fill-rule="evenodd" clip-rule="evenodd" fill="#F2EAB9" d="M157.363,146.249c1.333-1.029,2.345-0.495,3.771-0.597
		C159.858,146.94,158.853,146.567,157.363,146.249z"/>
	<path fill-rule="evenodd" clip-rule="evenodd" fill="#20253D" d="M138.839,202.541c0.622-0.32,1.244-0.641,1.867-0.962
		c1.43,1.583,4.894,2.177,2.689,5.531c-2.177,0.651-4.348,0.734-6.508-0.084C135.604,204.691,136.646,203.365,138.839,202.541z"/>
	<path fill-rule="evenodd" clip-rule="evenodd" fill="#20253D" d="M136.77,206.511c2.278-0.004,4.558-0.009,6.837-0.013
		c1.098-0.266,0.275-1.639,1.165-2.025c1.594,2.474,1.341,4.204-2.004,4.048c-2.372-0.11-4.949,0.968-7.104-0.913
		C136.073,207.284,136.156,206.63,136.77,206.511z"/>
	<path fill-rule="evenodd" clip-rule="evenodd" fill="#20253D" d="M144.771,204.473c-0.591,0.56,1.042,2.395-1.165,2.025
		c0.336-2.408-2.361-3.027-2.9-4.919C142.589,201.802,144.395,202.133,144.771,204.473z"/>
	<path fill-rule="evenodd" clip-rule="evenodd" fill="#20253D" d="M136.77,206.511c-0.368,0.365-0.737,0.73-1.106,1.097
		c0.684-1.923-2.059-5.993,3.175-5.066C138.175,203.879,136.511,204.693,136.77,206.511z"/>
	<path fill-rule="evenodd" clip-rule="evenodd" fill="#F8EDD1" d="M238.614,197.517c-0.956,0.104-1.912,0.208-2.867,0.313
		c3.227-4.14,7.143-2.261,10.96-1.256c-0.006,0.351-0.013,0.7-0.019,1.051C243.991,198.073,241.319,196.548,238.614,197.517z"/>
	<path fill-rule="evenodd" clip-rule="evenodd" fill="#F2E5C8" d="M261.7,196.58c-0.802-0.432-0.977-1.177-1-1.998
		c0.926,0.093,2.225-0.35,2.592,0.74C263.674,196.456,261.85,195.629,261.7,196.58z"/>
	<path fill-rule="evenodd" clip-rule="evenodd" fill="#E8AB85" d="M186.446,200.529c0.188-0.849-0.027-1.549-0.762-2.055
		c-0.478-0.329-1.504,0.007-2.047,0.005c-1.239-0.003-2.844-0.162-3.854-0.943c-0.577-0.445-0.623-1.235-1.175-1.695
		c-0.947-0.792-3.382-0.802-4.592-0.899c-1.913-0.156-4.248-0.077-6.021,0.751c-1.309,0.611-1.651,1.841-2.011,3.155
		c-0.242,0.888-0.525,1.852-0.123,2.737c0.326,0.72,3.424,0.419,4.682-1.805c2.242-0.786,4.468-0.938,5.771,1.638
		s-6.524,5.07-7.72,5.086c-1.006,0.012-1.655,0.265-2.437-0.551c-1.004-1.049-1.744-1.75-2.955-2.535
		c-0.392-0.255-0.661-0.721-1.089-0.907c-1.413-0.613-2.736,0.202-3.249,1.554c-0.443,1.172,0.236,2.051,0.536,3.155
		c0.259,0.951,1.715,3.919,2.393,4.442c0.992,0.767,1.288,2.142,2.479,2.697c0.747,0.349,1.21,1.02,1.82,1.541
		c0.579,0.494,1.278,0.646,1.867,1.094c1.561,1.182,2.679,1.354,4.566,1.59c3.179,0.398,6.215-0.332,7.161-3.736
		c0.271-0.972,0.694-1.854,1.015-2.805c0.268-0.794,0.26-1.664,0.562-2.447c0.252-0.652,0.754-1.139,1.043-1.769
		c0.8-1.743,0.577-3.21,2.885-3.508c0.224-0.028,3.378-0.601,3.402-0.518C188.208,202.494,187.819,201.188,186.446,200.529z
		 M169.712,212.566L169.712,212.566c0,0.002,0,0.004,0,0.006c-0.002,0-0.005,0-0.007,0
		C169.707,212.57,169.71,212.568,169.712,212.566z M182.632,205.618L182.632,205.618L182.632,205.618L182.632,205.618z"/>
	<path fill-rule="evenodd" clip-rule="evenodd" fill="#E8DDC4" d="M192.895,206.67c-0.13,0.576-0.261,1.151-0.392,1.727
		c-3.352,0.211-2.429-3.213-3.908-4.594c-0.737-1.008-1.986-1.588-2.411-2.861c-0.387-0.753-0.728-1.525-0.872-2.369
		c-0.095-1.005,0.767-1.418,1.275-2.051c0.965-0.307,1.932-0.612,2.896-0.919c1.043,0.24,1.633,0.759,1.183,1.918
		c0.608,1.693,1.218,3.386,1.827,5.079C191.553,204.062,192.395,205.35,192.895,206.67z"/>
	<path fill-rule="evenodd" clip-rule="evenodd" fill="#20253F" d="M213.284,199.144c-0.315-1.236-2.155-1.29-3.105-0.804
		c-0.063-0.295-0.215-0.548-0.457-0.758c-0.33-0.372-0.659-0.743-0.988-1.114c-1.014-0.548-2.028-1.096-3.042-1.644
		c-1.821-1.491-3.716-2.856-6.013-3.539c-0.696-1.151-2.588-0.159-3.064-1.708c-0.562-0.56-1.219-0.682-1.957-0.413
		c-0.715,0.261-1.735,0.772-2.152,1.434c-0.287,0.456-0.081,0.992-0.277,1.393c-0.139,0.283-0.754,0.703-1.062,0.95
		c-0.48,0.386-1.623,0.528-1.856,1.11c-0.205,0.51,0.336,1.505,0.259,1.557c0.232,0.621,0.688,1.084,0.787,1.765
		c0.149,1.021-0.24,2.034,0.029,3.051c0.24,0.906,0.722,1.733,0.947,2.648c0.285,1.196,0.698,2.339,1.424,3.349
		c0.631,0.879,1.151,2.098,1.9,2.859c1.861,1.896,3.337-0.981,4.688-1.779c1.128-0.666,2.535-0.865,3.694-1.604
		c1.088-0.691,2.228-1.177,3.306-1.854c0.537-0.337,1.208-0.363,1.718-0.711c0.445-0.305,0.581-0.858,0.957-1.223
		c0.431-0.416,1.013-0.556,1.541-0.81C211.608,200.795,212.729,200.226,213.284,199.144z"/>
	<path fill-rule="evenodd" clip-rule="evenodd" fill="#F4E6C5" d="M256.23,188.395c-1.568-0.473-8.174-0.659-9.792-0.284
		c-3.426,0.793-6.258,3.178-9.077,5.143c-1.186,0.826-2.39,1.623-3.661,2.312c-1.702,0.924-3.668,1.44-5.595,1.011
		c-1.642-0.366-9.758-7.313-10.259-7.454c-0.331-0.093-2.526-2.829-3.137-3.786c-0.888-1.392-2.15-2.463-3.904-2.098
		c-4.574,0.952-9.413,1.188-13.191,4.491c-0.548,0.523-0.98,1.118-1.197,1.855c0.145,1.816,1.76,2.006,2.953,2.659
		c1.379,0.756,2.796,1.353,4.129,2.213c1.516,0.979,13.964,9.695,14.667,10.104c1.697,0.983,3.007,2.314,4.273,3.79
		c0.968,1.128,6.428,4.572,7.982,4.436c1.419-0.125,13.909-4.603,15.223-4.545c1.918,0.085,4.068,0.718,4.894,2.679
		c0.528,1.254,1.438,2.691,2.962,2.698c1.333,0.007,2.386,0.44,3.604-0.349c1.008-0.651,1.642-1.738,2.105-2.814
		c1.118-2.592,2.562-4.92,4.219-7.205c0.703-0.971,1.362-2.229,2.218-3.063c1.481-1.444,2.44-2.538,2.987-4.606
		c0.588-2.221-1.173-3.109-2.948-3.41C265.041,192.061,257.588,188.804,256.23,188.395z"/>
	<path fill-rule="evenodd" clip-rule="evenodd" fill="#353D61" d="M101.847,157.2c-3.355-4.903-9.135-9.346-14.117-12.583
		c-0.297,0.033-1.68,2.306-1.996,2.979c4.146,1.637,11.961,11.283,13.656,12.182C99.713,159.086,101.779,157.537,101.847,157.2z"/>
</g>
</svg>
