<?xml version="1.0" encoding="utf-8"?>
<!-- Generator: Adobe Illustrator 16.0.4, SVG Export Plug-In . SVG Version: 6.00 Build 0)  -->
<!DOCTYPE svg PUBLIC "-//W3C//DTD SVG 1.1//EN" "http://www.w3.org/Graphics/SVG/1.1/DTD/svg11.dtd">
<svg version="1.1" xmlns="http://www.w3.org/2000/svg" xmlns:xlink="http://www.w3.org/1999/xlink" x="0px" y="0px" width="80px"
	 height="80px" viewBox="0 0 80 80" enable-background="new 0 0 80 80" xml:space="preserve">
<g id="Layer_1" display="none">
	<g display="inline">
		<path fill="#43B0E6" d="M181.817,81c0,2.35-0.08,4.68-0.24,6.99c-0.11,1.73-0.27,3.45-0.48,5.16c-0.2,1.68-0.44,3.35-0.71,5
			c-0.01,0.01-0.01,0.02-0.01,0.03c-1.18,7-3.07,13.76-5.61,20.2c-0.24,0.61-0.49,1.22-0.74,1.83c-0.24,0.57-0.48,1.14-0.73,1.7
			c-4.91,11.25-11.78,21.43-20.19,30.11c-0.29,0.3-0.58,0.6-0.88,0.9l-0.18,0.18c0,0-0.01,0.01-0.02,0.01
			c-0.28,0.3-0.57,0.59-0.87,0.87c-0.11,0.12-0.23,0.23-0.34,0.34c-0.38,0.37-0.76,0.74-1.15,1.1l-0.01,0.01
			c-3.51,3.32-7.27,6.39-11.23,9.18c-1.03,0.73-2.07,1.43-3.12,2.11c-0.4,0.27-0.79,0.53-1.19,0.78c-0.37,0.24-0.75,0.47-1.13,0.69
			c-5.17,3.19-10.65,5.91-16.37,8.14c-0.63,0.24-1.26,0.48-1.9,0.71c-0.2,0.08-0.4,0.15-0.6,0.22c-0.2,0.07-0.4,0.14-0.6,0.21
			c-0.01,0-0.03,0.01-0.04,0.01c-4.22,1.49-8.56,2.7-13.01,3.62c-0.02,0-0.03,0.01-0.05,0.01c-0.17,0.04-0.34,0.08-0.52,0.11
			c-0.14,0.03-0.29,0.06-0.44,0.09c-0.18,0.03-0.35,0.07-0.53,0.1c-4.38,0.85-8.84,1.532-13.4,1.762
			c-0.21,0.02-0.43,0.161-0.64,0.161h-0.06c-0.01,0-0.01-0.122-0.01-0.122c-0.21,0.021-0.42-0.03-0.63-0.021
			c-0.19,0.01-0.38-0.011-0.57-0.011c-1.34,0.07-2.68,0.075-4.04,0.075c-13.74,0-26.85-2.718-38.81-7.638
			c-0.52-0.2-1.03-0.424-1.54-0.644c-0.37-0.16-0.74-0.322-1.11-0.492c-35.82-15.9-60.79-51.771-60.79-93.481
			c0-18.81,5.08-36.431,13.94-51.561c0.19-0.32,0.38-0.64,0.57-0.96c1.54-2.57,3.19-5.07,4.95-7.49c0.58-0.8,1.17-1.6,1.78-2.38
			c2.84-3.68,5.93-7.17,9.25-10.43c0.33-0.34,0.67-0.67,1.02-0.99c18.36-17.62,43.29-28.43,70.74-28.43
			c45.28,0,83.68,29.43,97.11,70.2c0.11,0.31,0.21,0.63,0.32,0.95c1.09,3.43,2.01,6.94,2.73,10.52c0.31,1.5,0.59,3,0.82,4.52
			c0.36,2.26,0.64,4.56,0.85,6.87c0.05,0.53,0.09,1.06,0.13,1.59c0.05,0.68,0.1,1.36,0.13,2.04
			C181.768,77.29,181.817,79.14,181.817,81z"/>
		<path fill="#EEF3F9" d="M114.221,100.333H74.774c-11.199,0-20.277,8.805-20.277,20.003v0.446c0,1.468,0.165,2.55,0.461,4.55
			H15.498c-3.356,0-6.226,2-7.413,5h-8.087c-3.038,0-5.5,2.462-5.5,5.5s2.462,5.5,5.5,5.5h15.5h6.5h52.777h19.723h19.723
			c11.199,0,20.277-9.352,20.277-20.55v-0.446C134.498,109.138,125.419,100.333,114.221,100.333z"/>
		<path fill="#F6F8F5" d="M114.118,177.26c-0.2,0.07-0.4,0.14-0.6,0.21c-4.55,1.6-9.24,2.89-14.06,3.84
			c-0.66-0.95-1.73-4.44-2.58-5.75c-1-1.52,2.74-5,4.14-6.32c1.39-1.33,2.73-7.55,7.79-7.55c0,0-0.62,7.59-0.81,9.35
			C109.417,171.709,115.748,173.06,114.118,177.26z"/>
		<path fill="#1A1A1A" d="M114.587,174.55c-0.93-2.02-3.76-3.03-5.45-3.62c-0.22-0.08-0.43-0.17-0.6-0.24
			c0.22-2.25,0.76-8.813,0.77-8.883l0.04-0.473h-0.54c-3.99,0-5.82,3.463-7.04,5.803c-0.42,0.81-0.78,1.501-1.1,1.802l-0.13,0.096
			c-2.74,2.6-5.13,5.213-4.08,6.813c0.41,0.64,0.92,1.922,1.37,3.052c0.48,1.22,0.8,2.025,1.1,2.516
			c0.18-0.03,0.35-0.073,0.53-0.103c0.34-0.07,0.68-0.131,1.01-0.211c-0.11-0.01-0.2-0.011-0.28-0.021c-0.12,0-0.22-0.01-0.3-0.02
			c-0.26-0.32-0.76-1.59-1.13-2.53c-0.49-1.24-0.99-2.52-1.47-3.24c-0.33-0.52,0.08-1.9,3.94-5.57l0.13-0.12
			c0.44-0.42,0.82-1.15,1.3-2.08c1.1-2.12,2.59-4.99,5.61-5.3c-0.15,1.79-0.61,7.31-0.77,8.77l-0.04,0.35l0.33,0.16
			c0.23,0.1,0.59,0.23,1.02,0.39c1.54,0.54,4.11,1.45,4.87,3.09c0.29,0.63,0.28,1.32-0.02,2.1c-0.05,0.14-0.11,0.27-0.18,0.4
			c0.01,0,0.03-0.01,0.04-0.01c0.2-0.07,0.4-0.14,0.6-0.21c0.2-0.07,0.4-0.14,0.6-0.22
			C114.978,176.149,114.938,175.319,114.587,174.55z"/>
		<path fill="#F6D200" d="M114.118,177.26c0,0,0.5-1.45,0-2.58c-0.5-1.12-6.12-3.64-6.12-3.64s0.88-7.6,1-13.73
			c4.25,7.63,14,10.63,20.62,9.97c2.01-0.19,5.75-1.49,8.81-2.67C130.998,169.859,122.828,174.14,114.118,177.26z"/>
		<path fill="#1A1A1A" d="M129.388,167.45c-3.63,0-7.12-0.81-10.27-2.29c-3.9-1.55-7.52-4.21-9.68-8.09l-0.19-0.3l-0.75-1.32v1.96
			c-0.13,6.01-0.99,13.5-1,13.58l-0.04,0.36l0.34,0.15c2.62,1.17,5.61,2.8,5.87,3.39c0.41,0.92-0.01,2.19-0.02,2.21l-0.13,0.37
			c0.2-0.07,0.4-0.14,0.6-0.21c0.84-0.3,1.67-0.61,2.5-0.93l-1.84,0.31c0.1-0.59,0.13-1.42-0.2-2.16c-0.5-1.12-4.4-3-6.04-3.74
			c0.15-1.43,0.72-6.83,0.91-11.77c2.28,3.3,5.61,5.63,9.17,7.07c3.74,1.52,7.74,2.07,11.05,1.74c0.63-0.06,1.43-0.23,2.32-0.47
			C131.127,167.399,130.268,167.45,129.388,167.45z"/>
		<ellipse fill="#FBFDEF" stroke="#1A1A1A" stroke-miterlimit="10" cx="116.067" cy="97.679" rx="14.121" ry="13.585"/>
		<path fill="#F6D200" stroke="#1A1A1A" stroke-miterlimit="10" d="M104.45,115.685c-1.703-3.375-0.888-7.859,1.097-8.945
			s4.701-2.82,6.451,0s2.779,9.195,2.39,11.008S104.45,115.685,104.45,115.685z"/>
		<path fill="#F6D200" d="M181.098,93.149c-2.28,10.16-6.21,20.34-6.72,24.41c-0.1,0.79-0.22,1.68-0.35,2.65
			c-5.37,12.93-13.32,24.52-23.21,34.11c-0.84,0.47-1.37,0.74-1.44,0.74c-0.5,0-39.88-41.11-39.88-41.11s-2.62-2.14-2.5-5.39
			s1.75-7.12,6.25-7.5c2.74-0.23,9.25,3,14.5,2.88c5.25-0.13,0.75-8.76,0-10.26s-1.63-2.37-2.13-2.87s-19.74-1.5-21.5,0
			c-1.74,1.5-1.38-3.13-1.12-4c1.25-4.25,5.5-3.5,6-4.5s8.12-26.75,28.88-30.5c20.3-3.67,39.08,9.67,43.66,21.6
			c0.1,0.26,0.19,0.51,0.28,0.77C183.478,79.14,182.688,86.14,181.098,93.149z"/>
		<path fill="#1A1A1A" d="M182.297,74.03c-0.24-0.73-0.54-1.47-0.89-2.21c-4.97-10.58-20-21.13-36.6-21.13
			c-2.36,0-4.72,0.21-7.02,0.63c-16.89,3.05-25.43,20.2-29.01,30.15c-0.12,0.33-0.19,0.54-0.23,0.61c-0.09,0.13-0.66,0.28-1.09,0.39
			c-1.5,0.39-4.01,1.04-4.94,4.2c-0.18,0.6-0.54,3.52,0.22,4.53c0.39,0.52,1.05,0.55,1.71-0.01c0.13-0.11,1.11-0.67,7.63-0.67
			c6.02,0,12.41,0.46,13.25,0.71c0.5,0.49,1.29,1.31,1.97,2.68l0.08,0.15c2.72,5.41,2.63,7.597,2.07,8.527
			c-0.31,0.52-0.87,0.747-1.71,0.747h-0.29c-2.79,0-5.92-0.867-8.67-1.677c-2.31-0.68-4.28-1.233-5.57-1.123
			c-4.74,0.399-6.57,4.393-6.71,7.993c-0.13,3.46,2.57,5.716,2.64,5.767c39.52,41.26,39.95,41.264,40.24,41.264
			c0.01,0,0.11-0.048,0.28-0.128l0.01-0.01c0.39-0.36,0.77-0.729,1.15-1.1c0.41-0.39,0.82-0.8,1.21-1.21
			c-1.19,0.681-2.1,1.171-2.57,1.381c-2.6-2.34-29.25-30.08-39.64-40.92c-0.03-0.02-2.43-2.02-2.32-4.99
			c0.12-3.17,1.71-6.68,5.79-7.02c0.08-0.01,0.17-0.01,0.25-0.01c1.15,0,2.91,0.466,4.95,1.066c2.83,0.83,6.02,1.717,8.96,1.717
			h0.31c1.2,0,2.06-0.407,2.55-1.227c1.01-1.69,0.34-4.783-2.04-9.523l-0.07-0.137c-0.79-1.57-1.72-2.494-2.22-2.994
			c-0.66-0.66-10.78-0.936-13.9-0.936c-7.22,0-7.99,0.662-8.28,0.912c-0.16,0.13-0.24,0.17-0.25,0.18
			c-0.37-0.34-0.32-2.79-0.07-3.659c0.77-2.62,2.77-3.13,4.23-3.51c0.83-0.21,1.48-0.379,1.74-0.909c0.04-0.08,0.13-0.33,0.27-0.72
			c3.51-9.75,11.85-26.55,28.24-29.51c2.25-0.4,4.55-0.61,6.85-0.61c17.33,0,32.88,11.71,36.54,22.65c0.12,0.36,0.23,0.73,0.32,1.11
			c0.86,3.49,0.66,7.9-0.09,12.54c-1.09,6.86-3.36,14.24-5.12,19.95c-1.3,4.22-2.33,7.55-2.58,9.56c-0.16,1.24-0.36,2.76-0.58,4.41
			c0.25-0.56,0.49-1.13,0.73-1.7c0.25-0.61,0.5-1.22,0.74-1.83c0.04-0.26,0.07-0.52,0.1-0.76c0.25-1.92,1.31-5.38,2.55-9.39
			c0.95-3.1,2.01-6.52,2.96-10.05c0-0.01,0-0.02,0.01-0.03C182.708,89.5,184.388,80.29,182.297,74.03z"/>
		<path fill="#D5AF7C" d="M154.167,143.319c0,3.41-0.69,6.66-1.94,9.6c-0.46,0.47-0.93,0.94-1.41,1.4
			c-3.85,3.75-7.99,7.19-12.39,10.29c-1.41,1-2.85,1.96-4.31,2.89c-1.53,0.3-3.11,0.45-4.73,0.45c-10.84,0-20.03-6.96-23.41-16.63
			c-1.23-0.51-4.56-2.63-4.39-5.88c-1.34,0.12-10.09-2.5-10.21-7.75c-0.13-5.25,4.24-6.25,4.24-6.25s3.75-17.18,13.88-17.49
			c1.5-0.04,5.25,3.02,9.38,3.02c2.24,0,9.18-0.6,15.74,1.09c3.13,0.5,10.18,4.5,13.5,8
			C151.448,129.56,154.167,137.03,154.167,143.319z"/>
		<path fill="#F6F8F5" d="M98.328,177.89c0.42,2.17,1.22,2.75,1.57,3.33c-0.14,0.03-0.29,0.06-0.44,0.09
			c-0.18,0.03-0.35,0.07-0.53,0.1c-4.38,0.85-8.84,1.532-13.4,1.762c-0.21,0.02-0.43,0.161-0.64,0.161h-0.06
			c-0.01,0-0.01-0.122-0.01-0.122c-1.18-0.699,0.56-22.831,0.56-22.831c1.37-0.93,2.45-1.371,2.95-1.371s10.25,6.985,12.25,10.485
			S97.917,175.729,98.328,177.89z"/>
		<path fill="#1A1A1A" d="M99.883,180.52c-0.369-0.49-0.88-1.15-1.189-2.72c-0.12-0.66,0.47-1.54,1.1-2.48
			c1.09-1.65,2.46-3.7,1.101-6.08c-1.98-3.46-11.86-10.75-12.69-10.75c-0.689,0-1.93,0.56-3.229,1.45l-0.2,0.16l-0.01,0.3
			c-0.48,6.06-1.44,19.77-0.7,22.73c0.48-0.02,1.127-0.541,0.91-0.53c-0.49-1.66,0.01-12.33,0.76-22c1.18-0.77,2.04-1.08,2.41-1.12
			c1.14,0.52,10.05,7.04,11.88,10.25c1.05,1.84-0.021,3.46-1.07,5.03c-0.74,1.12-1.439,2.17-1.24,3.23
			c0.351,1.79,0.96,2.59,1.37,3.12c-0.009,0.002-0.022,0.005-0.032,0.007c0.055,0.07,0.104,0.143,0.152,0.217
			c0.043-0.008,0.086-0.017,0.13-0.024c0.32-0.07,0.65-0.12,0.96-0.2l-0.09-0.14C100.114,180.819,100.003,180.68,99.883,180.52z"/>
		<ellipse fill="#FBFDEF" stroke="#1A1A1A" stroke-miterlimit="10" cx="142.748" cy="100.006" rx="15.75" ry="13.905"/>
		<circle fill="#1A1A1A" cx="107.998" cy="93.567" r="1.75"/>
		<path fill="#CCCCCC" d="M13.5,30.288c0-4.449-0.502-20.561-0.502-23.725c0-2.5,2.884-2.27,2.884-0.336
			c0,3.04-0.217,22.333,0.783,24.833s9.333,14.5,8.5,20.833c0,0-4.775,1.333-6.054,2s-1.112-8-2.446-10s-7.417-6.754-7.917-9.21
			S8.254,10.151,8.209,8.772s2.288-1.795,2.455-0.129c0.15,1.5-0.36,17.174,0.417,21.833C11.331,31.977,13.5,32.144,13.5,30.288z"/>
		<path d="M18.848,34.02c-0.84-1.44-1.43-2.58-1.66-3.15c-0.85-2.13-0.69-17.94-0.69-23.13v-1.51c0-2.62-3.94-2.84-3.94,0.33
			c0,1.46,0.08,5.67,0.19,10.13c0.13,5.25,0.265,11.19,0.265,13.6c0,0.3-0.078,0.54-0.218,0.68c-0.13,0.14-0.293,0.17-0.414,0.17
			c-0.34,0-0.722-0.26-0.802-0.75c-0.53-3.17-0.461-11.52-0.411-17.04c0.03-2.48,0.04-4.27-0.01-4.76
			c-0.1-1.06-0.901-1.53-1.641-1.53c-0.23,0-0.47,0.04-0.68,0.13c-0.35,0.32-0.69,0.65-1.02,0.99c-0.08,0.19-0.11,0.4-0.11,0.61
			c0.01,0.3,0.02,1.56,0.03,3.38c0.04,6.7,0.12,20.64,0.52,22.61c0.34,1.69,2.88,4.16,5.11,6.34c1.24,1.21,2.41,2.35,2.88,3.05
			c0.56,0.85,0.87,3.37,1.12,5.39c0.41,3.38,0.63,4.87,1.61,4.87c0.12,0,0.25-0.03,0.36-0.09c1.22-0.64,5.91-1.95,5.96-1.97
			l0.32-0.08l0.04-0.33C26.317,46.97,21.638,38.859,18.848,34.02z M24.708,51.5c-1.07,0.31-4.38,1.27-5.66,1.87
			c-0.28-0.55-0.52-2.48-0.69-3.93c-0.29-2.35-0.58-4.78-1.28-5.82c-0.52-0.8-1.68-1.92-3.01-3.22c-2.03-1.97-4.55-4.43-4.83-5.82
			c-0.38-1.87-0.47-16.27-0.5-22.42c-0.01-1.83-0.02-3.1-0.03-3.4c0-0.17,0.05-0.32,0.17-0.45c0.16-0.15,0.4-0.25,0.64-0.25
			c0.27,0,0.6,0.11,0.65,0.63c0.04,0.44,0.03,2.3,0,4.65c-0.05,5.56-0.12,13.96,0.42,17.22c0.17,1.04,1.03,1.58,1.79,1.58
			c0.44,0,0.85-0.17,1.14-0.48c0.22-0.24,0.48-0.66,0.48-1.37c0-2.42-0.15-8.37-0.28-13.62c-0.11-4.46-0.22-8.67-0.22-10.11
			c0-0.98,0.58-1.33,1.03-1.33c0.45,0,0.97,0.34,0.97,1v1.51c0,9.09-0.07,21.43,0.76,23.51c0.26,0.63,0.87,1.74,1.75,3.27
			C20.507,38.839,25.067,46.8,24.708,51.5z"/>
		<path fill="#DF5633" d="M34.498,21.729c-7.67,0-15,1.33-21.67,3.66c-6.66,2.34-9.99,5.36-12.32,7.69
			c-3.81,3.81-9.49,0.26-8.67-4.6c1.54-2.57,3.19-5.07,4.95-7.49c3.19-3.34,6.87-5.67,11.71-7.6c8.27-3.29,19-4.66,26-3.66
			S42.167,21.729,34.498,21.729z"/>
		<path d="M34.567,9.229c-1.51-0.21-3.21-0.32-5.05-0.32c-6.85,0-14.98,1.54-21.21,4.02c-3.89,1.55-7.03,3.35-9.74,5.68
			c-2.66,3.44-5.1,7.06-7.3,10.83c0,0.94,0.22,1.85,0.67,2.7c0.98,1.85,2.91,3.04,4.93,3.04c1.46,0,2.84-0.6,3.99-1.75
			c2.65-2.65,5.96-5.4,12.14-7.56c6.9-2.42,14.13-3.64,21.5-3.64c4.13,0,5.81-2.93,5.98-5.43
			C40.708,13.569,38.718,9.819,34.567,9.229z M39.488,16.729c-0.16,2.17-1.55,4.5-4.99,4.5c-7.48,0-14.83,1.24-21.83,3.69
			c-6.37,2.23-9.78,5.07-12.52,7.81c-0.95,0.95-2.09,1.45-3.28,1.45c-1.65,0-3.24-0.98-4.05-2.51c-0.91-1.7-0.69-3.77,0.59-5.66
			c4-5.9,8.43-9.42,15.28-12.15c6.11-2.44,14.1-3.95,20.83-3.95c1.79,0,3.44,0.1,4.91,0.31
			C37.978,10.729,39.688,13.95,39.488,16.729z"/>
		<path fill="#77461E" stroke="#1A1A1A" stroke-miterlimit="10" d="M22.769,81.844l12.593-0.712c0,0-6.177-26.447-6.802-27.822
			s-2.463-1.684-3.396-1.417s-6.854,1.729-7.729,3.167S22.769,81.844,22.769,81.844z"/>
		<path fill="#F6D200" d="M84.888,183.089c-0.23,0.02-0.47,0.03-0.7,0.04c-1.53,0.08-3.06,0.11-4.61,0.11
			c-14.33,0-27.98-2.95-40.35-8.27c-7.76-7.71-24.92-56.35-27.79-63.72c-2.88-7.38-4.06-30.81,1.37-39.13
			c5.44-8.31,12.75-8.18,15.44-5.62s0.44,8.12-1.44,9.62c-1.87,1.5-3.75,4.5-4.04,5.73c0,0,3.61,15.71,4.35,18.46
			c0.76,2.75,9.88,2.25,13.13,3.25s-2.75-15.38-2.75-15.38l-3.06-13.74c0,0,2.31-1.88,3.68-1.63c1.38,0.25,3.88,2.37,4.38,6
			s1.5,6,5.12,14.13c3.63,8.12,0.26,17.5,0.13,19.12s14.03,22.29,21.5,32.5c10.33,14.12,20.5,17.25,20.75,20.25
			C90.248,167.8,87.127,180.379,84.888,183.089z"/>
		<path fill="#1A1A1A" d="M90.498,164.77c-0.12-1.42-1.79-2.64-4.55-4.66c-4.02-2.93-10.1-7.37-16.3-15.84
			c-7.95-10.89-21.25-30.43-21.4-32.17c0.02-0.25,0.14-0.79,0.3-1.46c0.77-3.31,2.58-11.07-0.47-17.91
			c-3.55-7.95-4.59-10.4-5.08-13.99c-0.52-3.72-3.11-6.12-4.79-6.42c-1.48-0.27-4.43,2.01-4.43,2.01l3.25,14.03
			c2.7,7.36,4.34,14.25,3.49,14.74c-0.03,0-0.06,0-0.12-0.02c-1.15-0.35-2.94-0.52-4.85-0.7c-3.18-0.3-7.54-0.71-7.94-2.2
			c-0.71-2.58-3.99-16.86-4.32-18.33c0.35-1.21,2.13-3.98,3.83-5.34c1.29-1.02,2.75-3.77,2.86-6.41c0.07-1.66-0.41-3.03-1.38-3.96
			c-1.12-1.07-2.87-1.68-4.8-1.68c-1.97,0-7.04,0.72-11.41,7.39c-5.56,8.5-4.35,32.06-1.42,39.58c0.42,1.08,1.15,3.05,2.11,5.65
			c5.51,14.87,18.13,48.96,25.04,57.4c0.37,0.17,0.74,0.33,1.11,0.49c0.51,0.22,1.02,0.44,1.54,0.64c-0.45-0.32-0.84-0.65-1.18-0.99
			c-6.55-6.5-19.88-42.51-25.57-57.88c-0.96-2.61-1.69-4.59-2.12-5.67c-2.79-7.18-3.98-30.56,1.33-38.67
			c4.1-6.27,8.76-6.94,10.57-6.94c1.68,0,3.17,0.51,4.1,1.4c0.97,0.92,1.12,2.24,1.08,3.19c-0.1,2.29-1.36,4.79-2.48,5.68
			c-2,1.6-3.9,4.69-4.22,6l-0.02,0.11l0.02,0.12c0.15,0.64,3.62,15.75,4.36,18.48c0.59,2.16,4.77,2.55,8.82,2.94
			c1.85,0.17,3.6,0.34,4.64,0.66c0.53,0.16,1,0.01,1.28-0.39c1.45-2.07-2.59-13.39-3.4-15.61l-3.01-13.24
			c1.05-0.59,2.16-1.66,3.07-1.5c1.1,0.2,3.49,2.1,3.96,5.58c0.52,3.72,1.58,6.21,5.17,14.26c2.91,6.53,1.16,14.06,0.41,17.27
			c-0.18,0.77-0.3,1.29-0.33,1.61c-0.16,2.09,16.34,25.64,21.6,32.83c6.29,8.61,12.44,13.1,16.51,16.07
			c2.36,1.73,4.06,2.97,4.14,3.93c0.24,2.86-2.82,15.34-5.01,17.94c-0.03,0.03-0.2,0.2-0.87,0.36c0.19,0,0.38-0.01,0.57-0.02
			c0.23-0.01,0.47-0.02,0.7-0.04c0.21-0.01,0.43-0.02,0.64-0.04C87.857,179.629,90.738,167.7,90.498,164.77z"/>
		<path fill="#77461E" stroke="#1A1A1A" stroke-miterlimit="10" d="M40.773,105.612c0.349,1.635,3.912,14.76,3.412,16.385
			s-2.793,2.938-4.771,3.375s-3.416,1.688-4.791,0.625s-5.728-15.108-6.083-18.554s3.708-4.633,5.208-4.821
			S40.773,105.612,40.773,105.612z"/>
		<g>
			<path fill="#F6D200" stroke="#1A1A1A" stroke-linecap="round" stroke-linejoin="round" stroke-miterlimit="10" d="M18.914,83.893
				c0.75-0.083,3.383-2.03,4.583-2.333c2.938-0.744,8-1.062,11.25-0.561c2.937,0.454,6.833,3.728,6.667,6.894s-0.667,4.833-2,5.833
				c0.917,0.75,4.667,2.333,4,6.833s-2.25,5.083-4.167,5.583s-3.75-1.167-5-0.917s-6.333,1.583-6.25,3.167"/>
			<path fill="#F6D200" stroke="#1A1A1A" stroke-linecap="round" stroke-linejoin="round" stroke-miterlimit="10" d="M39.414,93.727
				c-4.417-2.333-12.333-3.25-17.25,1.583"/>
		</g>
		<ellipse fill="#CCCCCC" stroke="#000000" stroke-miterlimit="10" cx="34.685" cy="117.747" rx="1.69" ry="2.062"/>
		<circle fill="#1A1A1A" cx="140.998" cy="93.567" r="1.75"/>
		<path fill="#F6D200" stroke="#1A1A1A" stroke-linecap="round" stroke-linejoin="round" stroke-miterlimit="10" d="M130.188,81.844
			c-1.19,1.466-4.823,6.973,2.493,7.469s23.066,0.997,25.816,1.247"/>
		<rect x="135.498" y="80.333" fill="#F6D200" width="19" height="9"/>
		<path fill="#1A1A1A" d="M148.488,125.709c-3.52-3.71-10.64-7.65-13.74-8.15c-3.16-0.81-6.76-1.21-11.02-1.21
			c-1.32,0-2.49,0.01-3.41,0.04c-0.59,0.02-1.08-0.02-1.44-0.02c-2.44,0-4.72-1.063-6.56-1.953c-1.17-0.57-2.1-1.083-2.83-1.083
			c0,0,0,0-0.01,0c-9.79,1-13.72,15.303-14.28,17.653c-1.06,0.37-4.44,2.042-4.32,6.782c0.12,5.14,7.81,7.855,10.21,8.176
			c0.14,3.11,3.08,5.113,4.5,5.763c0.73,2.06,1.72,3.961,2.91,5.711c2.55,3.74,6.06,6.716,10.12,8.626
			c3.3,1.56,6.96,2.408,10.77,2.408c1.22,0,2.43-0.091,3.6-0.261c0.38-0.22,0.76-0.45,1.13-0.69c0.4-0.25,0.79-0.51,1.19-0.78
			c-1.08,0.27-2.19,0.469-3.32,0.589c-0.86,0.09-1.72,0.14-2.6,0.14c-3.63,0-7.12-0.81-10.27-2.29c-3.96-1.84-7.37-4.73-9.85-8.39
			c-0.26-0.38-0.5-0.76-0.73-1.16c-0.84-1.4-1.54-2.89-2.09-4.47l-0.28-0.29c-1.1-0.45-4.19-2.39-4.08-5.33
			c0.03-0.57,0.56-1.11,0.99-1.4c2.55-1.74,8.95-2.35,15.76-0.08c0.27,0.09,0.55-0.05,0.63-0.31c0.09-0.27-0.05-0.54-0.31-0.63
			c-7.12-2.37-13.89-1.65-16.64,0.22c-0.68,0.46-1.13,1.02-1.32,1.6c-2.03-0.24-9.22-2.74-9.32-7.24c-0.12-4.76,3.7-5.71,3.86-5.75
			l0.31-0.07l0.06-0.31c0.04-0.17,3.77-16.8,13.42-17.1c0.46,0,1.38,0.45,2.36,0.92c1.82,0.89,4.32,2.1,6.99,2.1
			c0.37,0,0.87-0.01,1.47-0.03c0.91-0.03,2.07-0.07,3.38-0.07c4.17,0,7.69,0.38,10.82,1.18c2.97,0.48,9.91,4.37,13.21,7.85
			c3.31,3.49,5.91,10.92,5.91,16.92c0,3.82-0.9,7.44-2.51,10.66c0.3-0.28,0.59-0.57,0.87-0.87c0.01,0,0.02-0.01,0.02-0.01l0.18-0.18
			c0.3-0.3,0.59-0.6,0.88-0.9c1.01-2.71,1.56-5.64,1.56-8.7C154.667,136.99,152.007,129.419,148.488,125.709z M109.268,156.77
			l0.17,0.3c2.16,3.88,5.78,6.54,9.68,8.09C115.158,163.319,111.748,160.43,109.268,156.77z"/>
		<path fill="#1A1A1A" d="M177.007,49.91c-0.03,0.02-0.05,0.03-0.08,0.03c-2.8,0.41-9.21-1.13-14.88-2.49
			c-3.33-0.79-6.48-1.55-7.92-1.64c-3.86-0.25-11.33,2.8-12.67,5.78c-0.09,0.18-0.27,0.29-0.46,0.29c-0.07,0-0.14-0.01-0.21-0.04
			c-0.25-0.11-0.36-0.41-0.25-0.66c1.64-3.64,9.71-6.62,13.66-6.37c1.52,0.1,4.56,0.83,8.09,1.67c5.23,1.26,11.75,2.81,14.4,2.48
			C176.797,49.27,176.897,49.589,177.007,49.91z"/>
		<path fill="#1A1A1A" d="M180.558,64.95c-0.02,0.01-0.05,0.01-0.07,0.01c-0.22,0-0.43-0.15-0.49-0.38
			c-1.69-6.59-4.32-10.34-7.6-10.86c-3.31-0.53-6.31,2.27-6.82,3.07c-0.15,0.23-0.45,0.3-0.69,0.15c-0.23-0.15-0.3-0.46-0.15-0.69
			c0.61-0.95,3.97-4.14,7.81-3.52c3,0.48,5.41,3.06,7.19,7.7C180.047,61.93,180.328,63.43,180.558,64.95z"/>
	</g>
</g>
<g id="Layer_2">
	<g>
		<circle fill="#FFFFFF" cx="40" cy="40" r="36.498"/>
		<path fill-rule="evenodd" clip-rule="evenodd" fill="#D65B49" stroke="#D65B49" stroke-width="2" stroke-miterlimit="10" d="
			M40.103,18.279c-12.021-0.004-21.728,9.695-21.749,21.71c-0.021,11.808,9.51,21.728,21.731,21.731
			c12.212,0.004,21.734-9.888,21.751-21.685C61.855,28.017,52.081,18.257,40.103,18.279z M25.588,26.249
			c2.914-3.043,6.431-4.996,10.559-5.84c0.335-0.069,0.674-0.124,1.01-0.185c0.013,0.022,0.026,0.045,0.039,0.068
			c-0.258,0.237-0.521,0.469-0.775,0.711c-2.296,2.189-4.202,4.674-5.636,7.511c-0.103,0.203-0.183,0.259-0.419,0.185
			c-1.634-0.517-3.214-1.16-4.705-2.013C25.349,26.507,25.344,26.504,25.588,26.249z M39.041,39.196c0,0.719,0,0.137-0.718,0.137
			c-1.308,0-2.616,0-3.924,0c-2.817,0-4.653,0.314-4.643,0.066c0.107-2.815,0.698-5.628,1.767-8.234
			c0.071-0.172,0.144-0.258,0.329-0.215c1.973,0.466,3.97,0.734,5.996,0.834c0.304,0.015,0.609,0.041,0.912,0.03
			c0.247-0.008,0.288,0.292,0.286,0.511C39.038,34.548,39.041,36.973,39.041,39.196z M20.113,39.137
			c0.095-2.301,0.582-4.514,1.441-6.647c0.64-1.585,1.481-3.059,2.498-4.432c0.092-0.124,0.153-0.221,0.347-0.103
			c1.643,1.006,3.402,1.757,5.238,2.332c0.223,0.069,0.272,0.137,0.18,0.363c-0.936,2.321-1.52,4.726-1.717,7.222
			c-0.036,0.451-0.08,0.901-0.09,1.353c-0.005,0.221-0.071,0.28-0.289,0.278c-1.23-0.01-2.459-0.005-3.689-0.005
			c-1.19,0-2.381-0.01-3.571,0.007C20.162,39.509,20.1,39.445,20.113,39.137z M24.616,52.326c-0.163,0.096-0.226,0.051-0.327-0.079
			c-1.966-2.542-3.247-5.391-3.854-8.545c-0.137-0.714-0.208-1.438-0.293-2.158c-0.028-0.233,0.042-0.3,0.28-0.297
			c1.22,0.012,2.439,0.005,3.66,0.005c1.23,0,2.459,0.004,3.689-0.003c0.195-0.001,0.27,0.043,0.28,0.256
			c0.148,2.801,0.771,5.496,1.83,8.092c0.162,0.396,0.165,0.395-0.229,0.519C27.893,50.67,26.204,51.384,24.616,52.326z
			 M34.696,59.244c-3.421-0.971-6.378-2.729-8.884-5.251c-0.179-0.18-0.194-0.258,0.044-0.388c1.5-0.815,3.071-1.452,4.701-1.95
			c0.159-0.048,0.25-0.045,0.342,0.132c1.569,3.004,3.638,5.62,6.168,7.873c0.013,0.012,0.018,0.033,0.05,0.095
			C36.272,59.641,35.479,59.466,34.696,59.244z M39.039,58.915c0,0.019-0.005,0.039-0.02,0.121c-2.687-2.227-4.85-4.825-6.491-7.886
			c0.858-0.223,1.7-0.361,2.543-0.48c1.225-0.173,2.457-0.293,3.697-0.327c0.191-0.005,0.278,0.025,0.277,0.249
			C39.038,53.366,39.04,56.14,39.039,58.915z M39.044,48.337c0,0.186-0.047,0.25-0.243,0.258c-2.301,0.092-4.58,0.359-6.823,0.886
			c-0.208,0.048-0.266-0.013-0.338-0.186c-0.934-2.214-1.548-4.508-1.771-6.903c-0.027-0.293-0.043-0.588-0.089-0.878
			c-0.034-0.219,0.043-0.267,0.249-0.266c1.456,0.007,2.911,0.003,4.366,0.003c1.456,0,2.911,0.004,4.366-0.005
			c0.214-0.001,0.286,0.047,0.286,0.275C39.037,43.793,39.039,46.065,39.044,48.337z M38.69,30.068
			c-1.041-0.054-2.077-0.13-3.111-0.263c-0.994-0.128-1.978-0.303-2.958-0.511c-0.257-0.055-0.21-0.151-0.124-0.314
			c0.774-1.465,1.689-2.837,2.729-4.125c1.085-1.343,2.028-2.559,3.344-3.674c0.044-0.038-0.073-0.066-0.073-0.137
			c0,0.142,0,0.228,0,0.314c0,2.803,0.266,5.606,0.278,8.409C38.777,30.065,38.955,30.082,38.69,30.068z M55.788,27.958
			c0.163-0.1,0.232-0.06,0.329,0.073c1.859,2.515,3.097,5.299,3.651,8.382c0.168,0.929,0.278,1.864,0.306,2.81
			c0.006,0.227-0.064,0.281-0.281,0.28c-1.22-0.009-2.44-0.005-3.66-0.005c-1.22,0-2.44-0.004-3.66,0.005
			c-0.212,0.001-0.286-0.049-0.294-0.273c-0.063-1.623-0.256-3.229-0.625-4.813c-0.298-1.285-0.679-2.543-1.181-3.763
			c-0.091-0.221-0.052-0.3,0.174-0.37C52.387,29.716,54.143,28.959,55.788,27.958z M45.251,20.687
			c3.45,0.924,6.429,2.666,8.973,5.164c0.147,0.144,0.273,0.312,0.429,0.446c0.193,0.166,0.132,0.247-0.057,0.354
			c-1.226,0.697-2.508,1.269-3.838,1.731c-0.326,0.112-0.656,0.209-0.979,0.326c-0.163,0.059-0.256,0.049-0.345-0.129
			c-0.938-1.884-2.102-3.621-3.458-5.23c-0.927-1.099-1.928-2.126-3.083-3.134C43.745,20.329,44.502,20.486,45.251,20.687z
			 M40.799,20.89c0-0.027,0.01-0.054,0.024-0.124c0.604,0.458,1.138,0.936,1.66,1.427c2.087,1.963,3.826,4.196,5.173,6.729
			c0.167,0.313,0.165,0.319-0.167,0.389c-1.559,0.33-3.128,0.577-4.72,0.674c-0.579,0.035-1.158,0.064-1.736,0.104
			c-0.177,0.012-0.241-0.04-0.24-0.227C40.799,26.873,40.798,23.881,40.799,20.89z M40.792,32.105c0-0.238,0.073-0.293,0.3-0.296
			c2.445-0.04,4.857-0.35,7.237-0.909c0.202-0.047,0.274,0,0.346,0.179c0.791,1.959,1.342,3.979,1.59,6.082
			c0.079,0.664,0.129,1.329,0.17,1.997c0.016,0.261-0.046,0.351-0.33,0.348c-1.495-0.015-2.991-0.007-4.486-0.007
			c-1.506,0-3.011-0.005-4.517,0.006c-0.248,0.002-0.311-0.07-0.31-0.313C40.801,36.828,40.801,34.467,40.792,32.105z
			 M40.793,41.477c-0.001-0.223,0.105,0.313,0.27,0.313c1.515,0.004,9.344,0.002,9.319,0.403c-0.132,2.151-0.58,3.968-1.303,5.996
			c-0.167,0.472-0.37,0.796-0.542,1.266c-0.065,0.177-0.145,0.135-0.327,0.092c-2.362-0.549-4.759-0.86-7.181-0.926
			c-0.175-0.004-0.237-0.064-0.236-0.25C40.8,46.08,40.801,43.77,40.793,41.477z M39.498,59.312c0-0.118,0-0.195,0-0.272
			c0-2.795,0.653-5.59,0.643-8.384c0-0.264,0.395-0.327,0.655-0.321c2.168,0.053,4.471,0.312,6.588,0.783
			c0.027,0.006-0.515,0.018-0.488,0.027C46.176,53.155,42.498,57.698,39.498,59.312z M54.421,53.946
			c-2.959,2.979-6.484,4.899-10.617,5.684c-0.175,0.033-0.35,0.062-0.525,0.092c-0.028,0.03-0.054,0.061-0.081,0.091
			c-0.03-0.027-0.06-0.054-0.09-0.08c0.019,0.002,0.039,0.01,0.058,0.007c0.037-0.006,0.075-0.013,0.113-0.019
			c0.426-0.485,0.84-0.984,1.292-1.445c1.889-1.936,3.466-4.094,4.72-6.488c0.077-0.147,0.142-0.193,0.311-0.142
			c1.659,0.506,3.261,1.145,4.778,1.993C54.565,53.744,54.564,53.802,54.421,53.946z M60.05,41.504
			c-0.232,2.746-0.96,5.347-2.247,7.787c-0.551,1.046-1.19,2.037-1.917,2.97c-0.095,0.121-0.162,0.154-0.308,0.067
			c-1.629-0.969-3.369-1.691-5.176-2.252c-0.217-0.067-0.244-0.131-0.158-0.337c0.838-1.992,1.401-4.063,1.703-6.203
			c0.093-0.661,0.146-1.328,0.188-1.994c0.014-0.227,0.069-0.298,0.303-0.296c1.23,0.012,2.46,0.005,3.689,0.005
			c1.22,0,2.439,0.004,3.66-0.003C59.984,41.247,60.068,41.28,60.05,41.504z"/>
	</g>
</g>
</svg>
